<?xml version="1.0" encoding="utf-8"?><!DOCTYPE svg PUBLIC "-//W3C//DTD SVG 1.1//EN" "http://www.w3.org/Graphics/SVG/1.1/DTD/svg11.dtd"><svg version="1.1" xmlns="http://www.w3.org/2000/svg" width="760.2" height="109.3714" viewBox="0 0 760.2 109.3714"><g fill="#000000"><g><rect fill="#ffffff" width="760.2" height="109.3714" /></g><g transform="scale(0.1714,0.1714) translate(63,63)"><path d="M 547.4 16.75 L 513.9 1.8 L 512.25 3 L 510.45 3.6 L 506.85 3.6 L 503.9 3 L 497.3 0.6 L 494.3 0 L 490.7 0 L 488.95 0.6 L 487.15 1.8 L 430.3 10.75 L 410.6 11.95 L 353.8 23.3 L 331.65 30.5 L 320.4 35.15 L 294.1 35.75 L 285.15 38.75 L 280.35 41.75 L 268.4 41.15 L 252.25 44.75 L 242.1 45.9 L 236.7 44.75 L 213.95 48.3 L 150 65.05 L 138.6 64.45 L 114.25 66.25 L 75.35 72.85 L 49.65 78.2 L 44.25 75.8 L 38.9 75.8 L 29.9 79.4 L 23.35 81.2 L 20.95 81.2 L 17.95 80.6 L 12.55 77.6 L 9.6 75.2 L 7.2 75.2 L 3.6 77.6 L 1.2 81.2 L 0.6 83.6 L 0 88.4 L 9 91.35 L 33.5 102.15 L 54.45 108.7 L 70 108.7 L 71.75 107.5 L 73.55 106.9 L 77.15 106.9 L 87.9 110.5 L 90.9 110.5 L 92.7 109.9 L 95.1 107.5 L 96.9 105.1 L 123.8 94.35 L 134.45 91.95 L 139.8 91.95 L 153.55 84.8 L 166.75 79.4 L 193.65 71.65 L 249.85 61.45 L 253.45 59.1 L 256.45 56.1 L 263 52.5 L 270.2 50.1 L 284.55 48.3 L 306.65 48.3 L 332.25 42.95 L 389.65 36.95 L 417.15 31.55 L 418.35 33.35 L 420.15 34.55 L 423.75 35.75 L 427.95 36.35 L 440.5 34.55 L 444.1 34.55 L 447.05 35.15 L 449.45 33.35 L 451.85 32.15 L 454.85 31.55 L 457.25 31.55 L 462 32.15 L 467.4 33.95 L 478.75 36.35 L 484.15 36.35 L 490.7 35.15 L 500.9 36.95 L 531.85 48.3 L 548 51.3 L 558.75 50.1 L 563.55 48.3 L 568.95 45.35 L 573.7 41.75 L 571.95 37.55 L 568.95 33.35 L 562.95 26.9 L 555.8 21.55 L 547.4 16.75"></path><path d="M 293.5 102.75 L 291.7 105.1 L 290.5 108.1 L 289.9 111.7 L 249.85 172 L 248.05 175.55 L 243.25 180.95 L 240.9 182.15 L 235.5 183.35 L 229.5 182.15 L 217.55 177.95 L 206.8 174.95 L 209.8 208.45 L 191.25 239.55 L 166.15 270.05 L 146.4 288.6 L 146.4 292.15 L 128.6 313 L 109.45 332.7 L 70 365.6 L 47.85 390.15 L 20.95 411.05 L 3 422.4 L 3 429 L 13.15 427.2 L 22.75 424.2 L 50.25 410.45 L 76.55 391.9 L 86.7 379.95 L 98.1 369.2 L 146.4 329.75 L 169.7 308.8 L 179.9 305.2 L 187.05 299.25 L 202 277.25 L 206.8 271.85 L 209.2 270.65 L 212.2 270.05 L 218.15 270.05 L 222.95 271.25 L 225.35 273.05 L 226.55 275.45 L 227.15 284.4 L 236.7 329.15 L 237.3 338.7 L 236.7 348.85 L 231.3 374.6 L 229.5 400.9 L 230.1 455.2 L 228.3 459.35 L 218.75 474.9 L 216.95 479.7 L 216.35 483.9 L 216.95 488.65 L 221.75 497.65 L 227.7 504.2 L 234.3 509 L 238.5 510.8 L 243.25 512 L 246.25 506 L 249.85 500.65 L 263 485.7 L 270.8 474.9 L 273.75 468.95 L 278.55 455.8 L 279.75 449.2 L 280.95 435.45 L 278.55 374 L 280.35 362 L 277.95 345.3 L 269.6 257.5 L 263.6 221.6 L 266 218.6 L 271.4 206.65 L 273.75 202.5 L 279.15 198.9 L 281.55 198.3 L 286.95 198.3 L 288.7 194.7 L 291.1 191.7 L 309.05 174.35 L 316.8 165.4 L 319.2 161.95 L 321 158.35 L 323.3 149.95 L 323.3 145.2 L 322.7 141 L 321.6 137.4 L 318.6 103.35 L 317.4 100.35 L 315.65 97.35 L 313.25 94.95 L 310.85 93.15 L 307.85 91.95 L 303.65 91.95 L 301.9 94.35 L 293.5 102.75"></path><path d="M 499.1 346.45 L 496.1 344.7 L 487.15 335.1 L 464.4 318.95 L 460.2 315.4 L 448.25 314.2 L 436.3 310.6 L 425.55 304 L 417.15 295.15 L 413 295.15 L 408.8 294.55 L 405.2 293.35 L 384.9 280.2 L 375.3 276.05 L 367.55 274.85 L 363.35 275.45 L 369.95 288 L 378.3 299.25 L 388.45 308.8 L 400.4 315.4 L 460.2 378.75 L 463.8 379.35 L 467.4 380.55 L 470.4 382.35 L 473.4 384.75 L 478.75 391.3 L 483.55 399.1 L 499.7 414.05 L 504.45 417.65 L 509.25 420 L 514.5 421.8 L 520.5 422.4 L 534.25 433.05 L 543.8 437.85 L 559.95 441.45 L 570.75 442.05 L 592.85 438.45 L 604.2 435.45 L 606 432.45 L 612.6 423.6 L 615 421.8 L 617.35 420.6 L 620.35 420.6 Q 622.15 421.6 623.95 422.4 L 628.75 415.85 L 634.7 412.25 L 638.3 411.05 L 668.2 407.45 L 671.8 406.25 L 674.8 404.5 L 677.15 402.1 L 673.6 399.7 L 659.85 396.1 L 637.1 395.5 L 634.7 393.1 L 631.75 391.3 L 628.75 390.15 L 625.75 389.55 L 598.85 386.55 L 595.85 385.35 L 589.85 381.75 L 587.45 378.75 L 576.1 379.35 L 565.35 376.95 L 554.6 372.2 L 520.5 350.05 L 511.65 346.45 L 507.45 345.3 L 505.05 346.45 L 499.1 346.45"></path></g><g transform="scale(0.1714,0.1714) translate(867,63)"><path d="M 367.5 15.25 L 365.4 13.55 L 362 9.3 L 359.85 8.85 L 355.6 8.85 L 353.9 8 L 351.35 3.75 L 348.8 0 L 346.25 1.2 L 344.55 2.9 L 343.7 2.9 L 340.3 1.2 L 338.15 1.2 L 337.75 2.05 L 337.3 2.5 L 336.05 2.5 L 334.75 2.9 L 333.9 2.9 L 333.5 3.35 L 331.8 4.2 L 330.5 5.05 L 329.65 5.9 L 326.7 5.9 L 324.55 4.6 L 322.85 4.2 L 321.15 4.6 L 316.9 8.45 L 315.2 9.7 L 313.5 10.15 L 313.5 12.7 L 309.7 19.9 L 309.25 21.6 L 308 22.9 L 305.85 22.9 L 304.25 25.45 L 301.7 30.95 L 300.85 33.95 L 300.4 34.8 L 300 35.2 L 298.7 36.1 L 297.85 37.35 L 297.85 38.65 L 297 39.5 L 296.15 40.75 L 294.05 46.3 L 292.75 47.55 L 291.5 48.4 L 291.05 50.1 L 290.2 51.8 L 283.4 58.2 L 282.55 59.9 L 282.55 61.5 L 281.3 62.8 L 279.6 64.05 L 277.9 64.9 L 277.05 67.05 L 276.6 69.15 L 275.35 70.85 L 273.6 72.55 L 269.8 75.1 L 269.8 76.4 L 268.5 78.1 L 266.8 79.8 L 265.55 80.65 L 263.4 81.05 L 260.85 82.35 L 260 83.2 L 260 84.45 L 260.85 85.75 L 260.85 89.15 L 260 92.95 L 259.15 94.25 L 258.3 95.95 L 257.05 97.2 L 255.35 98.5 L 254.5 100.6 L 251.95 105.3 L 249.4 107 L 248.95 108.7 L 247.7 110.4 L 246.85 112.1 L 246.85 115.05 L 246.4 115.9 L 243 117.6 L 242.15 119.35 L 241.3 121.8 L 236.65 126.9 L 235.8 128.6 L 234.95 129.85 L 234.1 133.25 L 231.55 135.8 L 228.55 137.95 L 225.15 139.2 L 223.9 140.05 L 222.6 141.35 L 220.9 143.9 L 219.2 147.3 L 218.35 148.6 L 217.1 149.85 L 216.65 149 L 215.8 149 L 214.95 149.85 L 212.8 149.85 L 207.3 152.85 L 204.3 155.8 L 202.2 158.8 L 200.9 159.65 L 199.65 160.05 L 193.7 160.05 L 192.4 160.5 L 191.15 161.35 L 189.85 160.9 L 183.15 163.05 L 180.6 163.05 L 178.9 163.9 L 177.6 165.15 L 176.35 165.6 L 174.2 165.15 L 172.95 166.85 L 171.65 167.7 L 168.25 168.55 L 163.6 168.55 L 161.9 169.4 L 160.2 168.55 L 158.5 168.55 L 157.2 169 L 155.5 169.85 L 154.25 171.1 L 152.95 171.95 L 151.7 171.95 L 150 171.55 L 148.7 172.4 L 142.75 172.4 L 139.8 173.25 L 138.95 174.5 L 129.15 176.2 L 127 177.05 L 124.9 177.5 L 121.05 180.05 L 118.5 180.05 L 115.95 180.45 L 110.85 180.45 L 107.9 180.9 L 105.35 180.9 L 104.05 180.45 L 102.35 181.3 L 101.5 182.1 L 100.25 182.5 L 97.25 182.5 L 94.7 182.95 L 93.85 183.8 L 92.6 184.65 L 90.9 185.5 L 88.75 185.9 L 84.1 186.35 L 83.65 187.6 L 82.8 188.45 L 80.7 190.15 L 75.6 190.15 L 70.9 188.9 L 69.2 190.6 L 66.65 191.45 L 63.65 191.45 L 61.2 191 L 58.65 191 L 56.1 191.85 L 54 192.3 L 52.7 192.3 L 49.75 191.45 L 48.05 191.45 L 46.75 192.3 L 45.45 193.55 L 39.5 193.55 L 36.55 193.15 L 32.3 191.85 L 31.45 191.45 L 29.3 191.45 L 24.65 192.3 L 23.35 191 L 21.25 190.6 L 19.1 191 L 17.4 191.85 L 16.55 192.7 L 16.15 194 L 14 195.25 L 11.45 196.1 L 8.5 196.1 L 3.4 199.95 L 2.55 200.8 L 0.85 203.35 L 0.4 205.05 L 0 205.9 L 0 207.15 L 0.4 208.85 L 1.25 211 L 1.25 211.85 L 0.4 213.1 L 4.25 218.2 L 6.35 220.35 L 9.35 221.2 L 10.2 222.9 L 11.45 224.6 L 19.1 230.15 L 20.8 231.85 L 22.1 233.95 L 36.95 234.8 L 39.5 235.25 L 41.65 236.1 L 45.45 236.5 L 49.3 236.1 L 51 235.65 L 54.85 233.95 L 56.55 232.7 L 64.1 229.3 L 72.6 226.75 L 81.95 222.9 L 103.65 208 L 122.35 198.25 L 125.75 196.1 L 129.15 196.55 L 132.15 195.7 L 135.1 194.4 L 137.65 192.7 L 142.35 191.85 L 150 188.05 L 153.8 187.2 L 155.95 187.6 L 157.65 187.6 L 161.05 186.75 L 164.45 185.5 L 168.25 184.65 L 169.1 183.8 L 171.65 183.8 L 173.35 184.2 L 173.8 184.2 L 174.65 183.8 L 176.75 181.65 L 182.3 180.05 L 187.75 180.05 L 191.15 179.6 L 194.1 180.05 L 197.1 180.9 L 198.35 181.65 L 198.35 182.5 L 198.8 183.8 L 198.8 184.65 L 197.95 186.35 L 197.1 187.2 L 194.1 188.9 L 191.15 192.7 L 189.85 194.85 L 189 197.4 L 186.9 199.1 L 178.9 213.1 L 177.2 218.65 L 171.65 228 L 169.95 230.15 L 168.7 232.7 L 167.85 235.25 L 166.55 237.8 L 162.75 241.6 L 155.5 250.45 L 149.15 256.85 L 132.55 278.1 L 130.85 279.35 L 127.45 283.2 L 126.15 286.15 L 124.05 289.15 L 122.35 290 L 119.35 292.95 L 117.65 295.5 L 116.4 296.35 L 114.7 297.2 L 114.25 298.05 L 114.25 301.05 L 113.85 301.9 L 113.4 302.3 L 112.55 302.3 L 110.45 309.05 L 109.6 310.3 L 108.3 311.6 L 107.05 312.45 L 105.35 313.3 L 104.5 317.55 L 104.05 318.8 L 104.05 320.1 L 104.5 320.95 L 105.35 321.8 L 114.7 316.7 L 117.65 314.55 L 119.35 312.45 L 120.2 311.6 L 121.5 311.6 L 126.15 305.2 L 137.25 295.1 L 143.6 290.85 L 146.15 287 L 156.35 278.1 L 157.65 275.1 L 159.35 272.55 L 169.1 264.9 L 172.95 259.8 L 173.8 257.25 L 175.5 254.7 L 178.05 249.15 L 179.3 247.45 L 180.15 246.6 L 181.45 245.75 L 182.7 245.35 L 185.2 245.35 L 194.1 246.6 L 195.8 246.6 L 198.8 245.75 L 200.5 244.5 L 201.75 244.9 L 202.6 244.9 L 204.75 244.5 L 208.55 242.35 L 209 241.6 L 211.1 241.6 L 212.8 241.2 L 213.25 241.2 L 213.65 240.35 L 215.4 240.35 L 217.1 239.9 L 222.2 237.35 L 225.15 236.5 L 226 235.65 L 227.3 234.8 L 228.55 234.4 L 232.8 234.4 L 234.95 233.95 L 235.8 234.4 L 236.2 234.4 L 237.9 233.95 L 239.6 234.8 L 242.6 234.8 L 243.85 233.95 L 247.25 232.7 L 250.25 232.7 L 253.2 231 L 260.45 228.85 L 264.7 228.45 L 265.55 227.6 L 266.4 228 L 266.8 229.3 L 268.1 230.55 L 271.05 232.7 L 271.9 236.1 L 271.9 239.9 L 271.05 243.2 L 268.95 247.05 L 267.25 248.75 L 265.95 250.45 L 262.55 258.95 L 261.3 261.1 L 259.15 262.35 L 257.05 262.8 L 255.75 263.2 L 255.35 264.5 L 254.9 266.6 L 254.05 269.15 L 252.8 271.3 L 251.1 273.4 L 250.65 275.1 L 249.8 276.8 L 248.1 279.35 L 245.55 281.9 L 243.85 284.45 L 241.75 284.9 L 240.9 285.75 L 240.45 286.6 L 240.9 287.85 L 241.75 289.55 L 242.15 290.85 L 241.75 292.1 L 240.9 293.8 L 238.75 295.1 L 236.2 295.95 L 234.1 296.35 L 233.25 296.35 L 232.4 295.95 L 231.55 297.65 L 230.7 298.9 L 229.85 299.75 L 229.4 301.05 L 227.7 302.65 L 225.15 306.9 L 224.3 307.75 L 223.05 308.6 L 219.65 309.45 L 216.25 311.15 L 209 313.7 L 206 312.85 L 202.6 312.85 L 188.15 319.25 L 184.75 319.65 L 184 320.1 L 182.7 320.1 L 180.15 319.25 L 179.3 319.25 L 178.05 319.65 L 177.2 320.5 L 176.35 321.8 L 175.05 323.05 L 173.8 323.5 L 172.5 323.5 L 168.7 322.2 L 166.15 322.2 L 156.8 324.35 L 155.95 325.2 L 154.65 325.2 L 152.95 324.35 L 152.1 323.5 L 150.85 323.05 L 150 323.5 L 148.7 324.35 L 148.7 325.2 L 144.45 329.45 L 144.05 330.3 L 143.6 331.55 L 142.35 331.55 L 141.05 332 L 137.25 335.4 L 135.55 336.25 L 131.7 336.25 L 130.85 336.7 L 130.4 337.1 L 130 337.95 L 130.4 339.25 L 131.3 339.65 L 131.7 340.1 L 132.15 341.8 L 133 343.5 L 133.85 343.9 L 137.65 343.9 L 142.75 344.75 L 145.3 344.75 L 149.15 345.2 L 150.85 345.2 L 152.55 344.75 L 155.5 346.05 L 157.65 346.45 L 162.75 344.75 L 170.4 340.95 L 172.95 340.5 L 174.65 338.8 L 176.35 337.55 L 189.45 333.3 L 192 332.85 L 194.55 332 L 196.65 331.55 L 197.95 331.55 L 199.2 332.4 L 201.35 331.15 L 203.9 330.3 L 209 330.3 L 211.55 330.7 L 214.1 330.3 L 216.25 329 L 217.1 328.15 L 217.95 326.9 L 228.15 323.05 L 234.1 321.8 L 239.6 321.35 L 242.15 319.65 L 244.7 318.4 L 262.15 313.3 L 264.25 314.15 L 265.95 314.15 L 269.35 313.3 L 273.2 311.6 L 275.35 311.15 L 277.05 311.6 L 280.85 309.45 L 284.7 309.45 L 292.75 308.2 L 293.6 306.9 L 294.9 306.5 L 297.85 306.05 L 298.7 306.05 L 300 305.65 L 300.4 304.8 L 300.85 303.5 L 302.1 304.35 L 305.1 304.35 L 315.65 301.05 L 321.6 300.2 L 324.55 299.35 L 328.8 299.35 L 354.3 294.65 L 356.85 294.65 L 359.85 295.5 L 362.85 295.95 L 381.95 296.35 L 384.1 296.8 L 385.35 296.35 L 386.2 295.95 L 387.05 296.35 L 388.35 296.8 L 389.2 296.8 L 390.05 297.2 L 391.75 296.8 L 393 296.8 L 398.1 297.65 L 401.1 297.65 L 402.8 296.8 L 403.65 297.2 L 404.05 297.65 L 405.75 298.05 L 406.6 298.05 L 407.45 297.65 L 408.75 297.2 L 409.6 297.2 L 410.85 297.65 L 411.7 298.5 L 414.25 301.9 L 416.4 302.3 L 420.25 303.95 L 421.5 305.65 L 427.35 311.6 L 428.2 313.7 L 428.65 315.4 L 429.05 318.8 L 430.35 320.1 L 431.2 321.35 L 432.05 323.9 L 432.05 326.45 L 432.9 329.45 L 435 332 L 436.3 335.4 L 437.15 338.8 L 436.3 342.65 L 437.15 343.5 L 438 344.75 L 438.85 347.75 L 438 352.85 L 433.3 361.75 L 431.6 366.35 L 431.2 368.9 L 431.2 371.45 L 421.95 384.2 L 419.4 389.3 L 418.1 389.3 L 416.8 390.15 L 415.95 391 L 415.1 392.3 L 413.85 395.25 L 413 396.1 L 412.15 397.4 L 411.3 397.4 L 410.85 398.25 L 410.85 399.5 L 409.6 400.8 L 408.3 402.5 L 404.9 409.3 L 402.8 412.25 L 400.25 413.1 L 398.1 414.8 L 397.7 415.25 L 397.7 416.1 L 398.1 418.25 L 396.4 418.65 L 395.15 419.95 L 393 424.1 L 392.15 424.5 L 390.45 424.95 L 389.2 425.8 L 388.75 426.2 L 388.35 427.05 L 387.05 427.5 L 386.2 427.9 L 382.8 430.45 L 381.95 430.9 L 381.1 430.45 L 379.85 433 L 379 435.55 L 377.7 437.7 L 375.6 438.55 L 373.45 440.7 L 371.35 441.95 L 369.2 442.8 L 367.1 444.5 L 367.1 445.8 L 366.25 446.65 L 364.95 449.2 L 363.25 449.2 L 361.55 450.05 L 360.7 450.9 L 357.3 455.55 L 356 456.85 L 354.3 458.1 L 352.6 458.95 L 348.8 459.4 L 347.95 460.25 L 346.65 460.65 L 344.95 460.65 L 342.85 460.25 L 342 460.25 L 341.15 460.65 L 340.3 460.25 L 339 460.25 L 337.3 460.65 L 335.2 461.95 L 333.05 461.95 L 332.2 461.1 L 330.95 460.65 L 329.25 461.5 L 328.4 462.35 L 326.25 462.35 L 325 461.95 L 323.7 460.65 L 322 460.25 L 320.3 460.25 L 315.2 461.5 L 311.8 461.95 L 310.1 460.65 L 308.4 459.8 L 306.7 459.8 L 304.65 459.4 L 297 461.1 L 296.15 462.8 L 296.6 464.9 L 297 469.15 L 299.15 471.7 L 305.45 476.8 L 307.15 477.25 L 308 478.5 L 308.85 479.35 L 312.65 481.9 L 313.5 482.75 L 313.95 483.6 L 314.8 486.5 L 316.05 489.05 L 323.3 497.55 L 325 500.1 L 326.25 502.65 L 329.25 505.65 L 332.2 507.75 L 339.85 512 L 341.55 511.6 L 346.65 511.6 L 350.05 512 L 352.2 511.6 L 353.9 510.75 L 358.6 507.75 L 367.1 500.95 L 370.5 496.7 L 377.3 492.9 L 383.25 487.8 L 384.95 485.25 L 390.9 481.5 L 391.75 480.2 L 393.85 478.95 L 396 478.1 L 397.7 476.8 L 398.55 475.55 L 398.95 474.7 L 401.5 472.15 L 404.9 467.05 L 406.2 465.75 L 407.45 465.35 L 410.85 459.8 L 411.7 458.95 L 413 458.55 L 414.25 458.55 L 415.55 456.85 L 420.25 452.6 L 421.1 450.05 L 422.8 447.9 L 425.35 442.8 L 426.5 442.8 L 427.8 442.4 L 428.2 441.55 L 429.05 440.7 L 430.75 437.7 L 431.6 436.85 L 434.15 433 L 444.4 422.05 L 448.2 409.7 L 451.6 405.9 L 454.15 404.2 L 454.6 401.65 L 455 400.35 L 455.85 399.1 L 457.55 393.55 L 460.95 388.45 L 475 373.15 L 475.85 371.45 L 476.25 369.35 L 475.85 367.2 L 477.95 365.5 L 479.25 363.4 L 480.1 360.9 L 482.2 347.75 L 481.35 346.05 L 481.35 342.65 L 482.65 337.55 L 482.65 336.25 L 482.2 334.55 L 483.05 333.7 L 483.05 332.85 L 482.65 332 L 480.1 329.45 L 479.25 327.75 L 478.8 324.35 L 475.85 317.55 L 474.15 314.55 L 474.55 312.85 L 474.15 312 L 471.6 308.6 L 471.15 307.75 L 471.6 306.5 L 468.6 301.9 L 466.9 299.75 L 465.2 298.5 L 464.35 296.8 L 463.5 295.95 L 456.3 290.85 L 456.3 290 L 455.85 289.55 L 455 289.55 L 453.3 290 L 452.45 289.15 L 451.6 287.85 L 451.2 287 L 449.05 286.15 L 445.65 284.05 L 444.8 283.2 L 444.4 281.9 L 443.55 280.65 L 441.4 278.1 L 435 275.55 L 433.3 274.25 L 432.9 273 L 432.45 272.55 L 431.6 272.15 L 430.75 272.55 L 429.05 273 L 428.2 272.55 L 427.35 271.7 L 424.05 271.7 L 416.8 268.75 L 413.4 268.75 L 412.15 267.9 L 411.3 267.05 L 409.15 265.35 L 408.3 264.5 L 407.45 264.5 L 405.75 265.35 L 402.35 267.9 L 400.65 267.9 L 398.95 267.45 L 397.7 266.6 L 396.4 266.2 L 396 266.2 L 396 267.05 L 393.85 268.3 L 391.3 268.75 L 386.65 267.9 L 385.35 267.9 L 383.65 267.05 L 382.8 267.05 L 381.95 267.9 L 381.1 267.05 L 379.85 266.6 L 379 266.2 L 378.55 264.9 L 377.3 266.2 L 377.3 270.45 L 376.45 271.7 L 375.6 272.15 L 374.3 273 L 373.45 274.25 L 372.6 273 L 371.75 273 L 370.9 273.85 L 370.05 275.1 L 369.2 275.95 L 368.35 275.95 L 367.1 275.55 L 362.4 277.65 L 360.7 278.1 L 358.15 277.65 L 356 277.65 L 353.9 277.25 L 352.2 278.1 L 345.4 279.35 L 341.15 280.65 L 338.15 282.75 L 332.2 283.6 L 323.7 284.05 L 318.2 286.6 L 310.1 288.3 L 303.8 289.15 L 302.1 290 Q 301.5 290.4 300.85 290.85 L 299.15 290 L 297.85 290.85 L 296.6 291.25 Q 296.15 291.5 295.75 291.7 L 294.9 291.25 L 288.95 292.95 L 283.4 295.5 L 280 296.35 L 277.9 297.2 L 276.2 297.2 L 274.5 296.35 L 272.75 294.65 L 272.75 292.95 L 273.2 292.1 L 274.05 288.7 L 275.75 285.3 L 280.45 280.2 L 291.5 271.3 L 296.15 268.75 L 305.45 258.95 L 307.55 257.25 L 308.85 255.15 L 313.1 251.75 L 315.2 250.45 L 317.35 247.45 L 319.9 242.35 L 320.3 240.35 L 320.3 238.65 L 319.9 236.5 L 319.9 233.1 L 319.45 229.7 L 317.75 225.85 L 315.65 222.9 L 314.35 222.05 L 313.1 220.75 L 311.4 218.2 L 310.55 215.25 L 310.1 212.25 L 310.1 211.4 L 310.55 210.15 L 310.1 208 L 310.1 204.6 L 311.4 200.8 L 312.65 198.65 L 322.85 192.7 L 324.55 191 L 329.25 188.45 L 331.8 186.75 L 332.65 185.5 L 333.05 184.2 L 335.6 181.65 L 338.6 179.6 L 342.4 175.8 L 343.25 174.5 L 344.55 176.2 L 347.95 173.25 L 350.9 169.85 L 353.05 166.45 L 353.9 164.3 L 354.75 160.05 L 354.75 157.95 L 354.3 155.4 L 349.2 145.2 L 347.95 144.35 L 347.5 143.9 L 347.5 143.5 L 346.25 141.75 L 343.25 138.8 L 342.4 138.35 L 341.15 137.95 L 339.85 137.95 L 330.5 134.1 L 327.1 133.7 L 326.7 132.4 L 325.4 131.55 L 324.15 131.15 L 319.45 131.15 L 317.75 130.7 L 316.5 129.85 L 316.05 131.15 L 315.65 131.55 L 314.35 132.4 L 312.65 132.85 L 311.8 133.25 L 310.95 134.1 L 310.1 133.25 L 302.1 133.25 L 300.85 132.85 L 298.7 134.55 L 297.85 136.25 L 289.8 141.35 L 288.1 142.2 L 286.4 142.2 L 284.7 141.35 L 283.4 140.5 L 282.55 139.2 L 282.55 129.85 L 283 128.6 L 283.85 127.75 L 284.7 127.3 L 288.5 122.2 L 298.3 115.05 L 302.55 110.4 L 304.25 107 L 306.7 104 L 319.05 93.8 L 321.6 90.85 L 323.7 87.45 L 330.1 85.3 L 331.8 83.6 L 332.65 82.35 L 341.15 73 L 347.5 69.6 L 350.05 66.6 L 356 62.35 L 359.45 61.1 L 359.85 60.3 L 360.3 59.9 L 362.4 59.9 L 363.25 59.45 L 365.4 59.05 L 367.5 58.2 L 369.2 56.9 L 370.9 55.2 L 376.45 48 L 377.3 46.3 L 378.55 40.35 L 377.7 39.5 L 377.3 38.2 L 376.85 36.1 L 376.85 33.95 L 376.45 31.8 L 375.15 29.7 L 374.75 27.55 L 374.3 20.75 L 373.45 19.05 L 372.2 17.35 L 370.05 16.1 L 367.5 15.25 M 290.65 161.35 L 288.1 169 L 287.65 171.55 L 286.4 172.4 L 285.1 173.65 L 282.55 178.75 L 281.3 180.05 L 280 180.9 L 278.75 182.5 L 274.5 186.35 L 267.25 190.15 L 266.4 190.15 L 266.4 191.85 L 265.55 192.3 L 265.55 194 L 263 198.65 L 260.45 201.2 L 258.75 203.75 L 254.5 206.3 L 254.05 207.15 L 254.05 208 L 247.25 211.85 L 246 214.4 L 238.35 221.2 L 234.5 223.3 L 229.85 223.3 L 227.7 223.75 L 226 225 L 223.45 225.85 L 222.6 227.15 L 221.75 228 L 219.2 228.85 L 216.25 228.45 L 213.25 228.45 L 211.55 227.6 L 210.7 225.85 L 209.85 222.45 L 210.25 215.25 L 211.1 213.95 L 214.95 210.15 L 216.25 208.45 L 216.65 207.15 L 217.1 205.05 L 216.65 203.35 L 218.8 199.1 L 224.3 191.45 L 228.15 188.9 L 244.7 166.85 L 247.25 165.15 L 253.65 163.45 L 254.9 162.6 L 256.6 161.75 L 259.6 162.2 L 262.55 162.2 L 268.95 161.35 L 281.3 158.35 L 283.85 158.35 L 286.4 158.8 L 288.5 159.65 L 290.65 161.35"></path><path d="M 147.45 71.3 L 144.45 73.85 L 143.6 75.1 L 142.75 76.8 L 142.35 78.5 L 142.35 80.65 L 141.05 82.35 L 140.2 84.05 L 140.2 86.15 L 141.9 93.8 L 141.9 95.5 L 145.3 103.6 L 146.6 105.7 L 147.45 108.25 L 148.7 115.5 L 151.25 119.35 L 153.8 120.2 L 161.9 129.45 L 163.15 129.85 L 164 130.3 L 166.15 132 L 168.25 131.15 L 170.4 131.15 L 172.5 131.55 L 174.2 132.4 L 178.05 133.25 L 179.75 132.4 L 181.45 131.15 L 186.05 128.6 L 186.9 127.75 L 187.3 126.45 L 187.3 123.05 L 188.15 120.2 L 188.6 117.2 L 188.15 114.65 L 183.15 103.6 L 181.45 98.05 L 177.6 92.55 L 176.75 89.15 L 173.8 87 L 172.95 86.6 L 170.8 86.6 L 169.95 87.45 L 169.1 87.45 L 168.25 87 L 167.85 85.75 L 167 84.05 L 166.55 82.35 L 164 81.5 L 161.45 80.2 L 159.35 78.1 L 158.05 75.95 L 156.8 75.55 L 150.4 69.6 L 147.45 71.3"></path><path d="M 354.3 336.25 L 349.2 340.1 L 347.95 341.35 L 346.25 343.9 L 345.8 345.6 L 345.8 346.9 L 346.25 348.6 L 358.6 362.6 L 364.1 366.8 L 367.1 368.5 L 367.95 370.2 L 369.2 371.9 L 372.2 374 L 381.55 377.85 L 384.95 378.7 L 391.3 378.7 L 393 378.25 L 394.3 377.4 L 397.7 371.9 L 398.95 368.9 L 399.4 364.65 L 399.8 363.05 L 399.4 360.9 L 399.8 359.2 L 399.4 357.5 L 398.1 356.25 L 397.25 354.95 L 393.45 351.15 L 393 349.45 L 386.65 340.95 L 385.8 340.95 L 384.95 340.1 L 383.65 339.25 L 382.8 338.4 L 378.55 338.4 L 377.3 337.55 L 376.45 336.25 L 376.45 335 L 374.75 336.25 L 373.05 336.25 L 371.35 335.85 L 369.2 335 L 368.8 334.55 L 367.95 334.15 L 367.1 334.15 L 366.25 334.55 L 364.95 335.85 L 364.1 336.25 L 363.25 336.25 L 359.45 335.4 L 356 333.3 L 355.15 335 L 354.3 336.25"></path><path d="M 263 347.75 L 260.45 348.6 L 257.45 350.3 L 255.35 352.4 L 254.05 352.85 L 253.65 353.25 L 253.2 354.1 L 253.2 356.65 L 252.8 357.5 L 251.95 358.35 L 252.8 360.9 L 253.2 363.4 L 253.2 364.65 L 254.05 365.95 L 254.9 366.8 L 256.6 367.2 L 257.45 370.6 L 261.3 376.55 L 264.7 378.7 L 266.8 388.05 L 268.5 391 L 268.5 392.7 L 268.95 394.85 L 269.8 396.55 L 270.65 397.4 L 271.5 397.8 L 285.95 400.8 L 288.5 400.35 L 291.05 399.1 L 294.9 396.1 L 296.15 393.15 L 296.15 384.2 L 297 382.95 L 297.45 381.65 L 297.85 378.7 L 297.85 376.15 L 298.7 373.6 L 299.55 372.3 L 299.55 369.35 L 299.15 368.05 L 297.85 365.5 L 297.45 364.25 L 297.45 362.6 L 296.6 360.9 L 294.9 359.2 L 293.6 357.5 L 287.65 354.55 L 283.4 353.7 L 282.55 352.4 L 277.9 350.3 L 274.5 349.45 L 273.2 348.6 L 271.5 347.75 L 268.5 347.75 L 267.25 347.3 L 265.55 347.75 L 263 347.75"></path><path d="M 213.25 391.45 L 212.4 389.75 L 210.7 388.05 L 209.4 385.9 L 205.6 377.85 L 203.05 376.15 L 202.2 374 L 200.9 371.9 L 200.05 371.05 L 198.8 370.6 L 197.95 370.6 L 197.5 370.2 L 197.1 368.5 L 196.65 365.5 L 194.1 364.25 L 189.85 365.1 L 187.75 365.95 L 186.05 367.2 L 185.2 367.65 L 184.75 368.05 L 184.35 368.9 L 184 370.2 L 183.55 370.6 L 182.7 370.6 L 181 379.95 L 181.45 381.65 L 181.45 383.8 L 181 387.6 L 180.6 394.4 L 179.3 395.7 L 178.9 396.95 L 178.9 397.8 L 179.3 399.1 L 181 401.2 L 181.45 402.5 L 181.45 403.75 L 182.7 405.05 L 183.55 406.3 L 184 408 L 184 409.3 L 184.35 412.7 L 184.75 413.95 L 185.6 415.25 L 189 416.95 L 190.7 418.25 L 192.4 418.65 L 194.55 420.35 L 197.1 421.2 L 199.2 421.65 L 201.75 421.65 L 209.4 419.95 L 211.1 419.1 L 212.8 417.8 L 214.1 416.5 L 218.35 408.45 L 219.2 405.05 L 218.35 402.05 L 215.8 398.65 L 213.25 391.45"></path><path d="M 88.35 397.4 L 87.5 396.55 L 86.65 396.1 L 84.95 395.7 L 84.1 395.7 L 83.25 395.25 L 82.8 394.4 L 82.4 393.15 L 82.4 391.85 L 81.95 390.6 L 81.1 390.15 L 80.25 389.3 L 77.7 388.45 L 76.85 388.05 L 76 386.75 Q 75.4 387.2 74.75 387.6 L 73.05 386.75 L 71.75 385.9 L 70.9 385.5 L 70.05 384.65 L 68.75 384.65 L 67.5 385.05 L 63.25 387.2 L 60.35 390.15 L 56.95 398.65 L 57.8 401.2 L 58.25 404.2 L 57.8 405.45 L 57.8 406.3 L 58.25 408.85 L 59.1 411.4 L 59.5 413.95 L 60.35 413.95 L 60.8 414.4 L 61.65 416.1 L 62.05 418.25 L 62.9 419.5 L 63.25 420.35 L 66.65 423.65 L 67.9 425.8 L 69.6 427.05 L 73.45 428.75 L 76 431.3 L 80.25 437.7 L 82.4 440.25 L 84.95 442.4 L 87.9 443.65 L 89.6 444.1 L 93 444.1 L 95.15 443.65 L 96.85 442.8 L 104.5 436 L 105.35 434.7 L 105.75 433.45 L 106.2 430.9 L 107.45 426.65 L 108.3 425.35 L 106.6 423.65 L 105.35 421.65 L 104.5 419.5 L 103.2 412.7 L 102.35 410.15 L 100.65 408.45 L 95.15 401.65 L 92.15 399.1 L 88.35 397.4"></path></g><g transform="scale(0.1714,0.1714) translate(1477,63)"><path d="M 0.5 0 L 0.5 1 L 1.5 1 L 1.5 0 L 0.5 0 M 0.5 511 L 0.5 512 L 1.5 512 L 1.5 511 L 0.5 511"></path><path d="M 157.4 306.95 L 158.75 309.65 L 158.75 308.75 L 158.3 307.85 L 157.4 306.95"></path><path d="M 205.7 302 L 205.7 300.65 L 202.1 302 L 205.7 302"></path><path d="M 462.8 184.65 L 462.35 185.1 L 460.55 186.45 L 459.65 186.9 L 458.3 187.35 L 457.4 186.9 L 456.95 186.45 L 456.95 184.65 L 436.2 189.6 L 434.85 190.95 L 432.6 191.4 L 428.55 190.95 L 426.75 191.4 L 420 191.4 L 418.65 192.3 L 417.3 194.1 L 416.85 196.45 L 413.7 196.45 L 410.95 196.9 L 408.7 197.8 L 401.05 201.85 L 398.8 202.75 L 395.65 202.75 L 395.2 204.55 L 391.5 207.25 L 380.25 210.85 L 378.45 212.2 L 376.65 212.65 L 374.35 212.65 L 370.3 211.75 L 368.05 211.75 L 366.25 212.65 L 364.45 214.5 L 354.1 215.85 L 349.6 217.2 L 345.1 219.9 L 345.55 219.9 L 345.55 220.35 L 345.1 221.25 L 347.35 220.8 L 348.7 220.8 L 350.05 221.7 L 350.5 222.6 L 351.4 223.5 L 351.4 227.55 L 350.05 227.55 L 348.7 226.65 L 347.35 226.2 L 346 225.3 L 346 224.4 L 346.45 223.5 L 344.2 223.95 L 342.35 223.5 L 341.9 223.05 L 341 222.6 L 339.65 226.2 L 338.75 225.3 L 337.4 224.85 L 336.95 223.95 L 336.95 223.05 L 337.4 222.6 L 337.4 221.7 L 337.85 221.25 L 342.35 219.9 L 341 218.55 L 339.65 218.1 L 338.3 218.1 L 337.4 219 L 334.7 220.35 L 333.35 220.35 L 332 219.9 L 308.55 229.35 L 302.25 234.3 L 284.6 240.15 L 266.1 243.75 L 253.95 243.3 L 253.5 241.95 L 252.6 241.5 L 252.15 241.5 L 251.25 241.95 L 249.9 242.85 L 249.45 242.85 L 248.55 241.95 L 245.4 242.85 L 242.25 244.2 L 240.9 245.1 L 239.95 246.05 L 239.5 246.95 L 239.5 248.3 L 236.8 248.3 L 235.45 247.85 L 234.1 247.85 L 231.4 249.65 L 226.45 253.7 L 225.1 252.35 L 224.2 253.25 L 222.85 253.7 L 219.7 255.15 L 218.35 255.6 L 216.55 257.4 L 216.1 258.75 L 221.5 258.75 L 221.5 259.2 L 221.95 259.65 L 220.15 261.45 L 215.2 259.65 L 212.5 259.2 L 200.75 260.1 L 205.7 255.15 L 199.4 255.15 L 198.05 254.7 L 197.15 254.15 L 195.35 252.35 L 194.45 250.1 L 192.65 248.3 L 189.05 249.65 L 181.75 250.1 L 168.2 246.05 L 165.5 245.55 L 163.25 246.95 L 160.55 247.4 L 157.4 247.4 L 154.7 246.95 L 148.85 246.95 L 146.6 247.4 L 144.8 248.3 L 143.9 248.3 L 143.45 247.4 L 143.45 245.55 L 140.75 246.5 L 135.75 246.5 L 124.95 244.65 L 122.7 244.65 L 122.7 243.3 L 119.55 243.3 L 118.2 243.75 L 117.3 244.65 L 115.5 243.75 L 112.8 243.75 L 107.4 245.55 L 105.55 245.55 L 102.85 246.95 L 99.7 247.4 L 97 247.4 L 93.85 246.95 L 88 246.95 L 85.2 247.4 L 82.05 248.3 L 82.05 247.4 L 83.4 246.95 L 83.85 246.5 L 83.4 245.55 L 82.5 245.1 L 80.7 244.65 L 79.35 243.3 L 77.1 241.95 L 74.85 241.95 L 72.15 242.4 L 69.9 243.3 L 61.3 248.3 L 57.7 248.75 L 46.9 248.3 L 18.95 241.5 L 12.2 240.6 L 5.45 240.6 L 6.35 241.95 L 5.9 242.85 L 5 243.75 L 3.65 244.2 L 2.25 244.2 L 0.9 245.1 L 0 246.5 L 0 248.3 L 3.2 249.65 L 5.45 251 L 10.4 254.7 L 18.5 262.8 L 21.2 264.6 L 23.45 264.6 L 26.15 263.7 L 27.5 263.7 L 28.85 264.15 L 27.5 269.1 L 28.85 269.1 L 34.25 276.3 L 41.5 292.1 L 43.75 295.7 L 46.9 299.3 L 47.8 300.65 L 47.8 304.7 L 48.25 306.05 L 48.25 306.95 L 49.15 307.85 L 50.95 308.3 L 50.95 313.8 L 54.55 312.35 L 55.9 312.8 L 55 313.8 L 53.65 314.7 L 53.2 315.15 L 53.65 316.05 L 55.45 317.4 L 61.75 324.2 L 63.55 325.55 L 67.65 327.35 L 72.6 327.35 L 76.65 325.55 L 78.9 324.2 L 82.05 321.45 L 85.2 322.8 L 86.65 323.3 L 87.55 323.3 L 89.8 322.8 L 94.75 317.85 L 97 316.5 L 99.25 316.05 L 100.6 316.5 L 101.95 317.85 L 101.95 318.75 L 101.5 320.1 L 103.3 319.2 L 107.85 319.2 L 111 319.65 L 112.35 319.65 L 113.25 318.75 L 116.4 317.85 L 123.6 317.85 L 133.05 320.1 L 133.95 319.65 L 134.85 318.75 L 134.85 317.4 L 133.05 314.7 L 135.3 315.6 L 138.05 316.05 L 143.9 316.05 L 147.05 315.6 L 152.45 313.8 L 155.15 312.35 L 155.15 311.45 L 155.6 311 L 155.15 309.2 L 155.6 308.3 L 155.6 307.4 L 156.5 306.95 L 157.4 306.95 L 164.15 309.65 L 164.15 311 L 168.2 311 L 168.65 309.65 L 171.4 308.75 L 178.15 308.75 L 179.5 308.3 L 179.95 306.5 L 179.5 305.6 L 178.6 305.15 L 175 303.8 L 173.2 302 L 174.55 300.65 L 179.95 300.65 L 180.85 300.2 L 181.3 298.85 L 180.85 296.6 L 182.65 295.7 L 184 295.25 L 185.35 295.25 L 189.95 296.6 L 192.65 296.6 L 192.65 299.3 L 191.75 299.75 L 190.85 299.75 L 189.05 299.3 L 187.6 300.2 L 186.7 301.1 L 186.25 302 L 186.25 302.45 L 186.7 303.35 L 187.6 304.25 L 188.6 303.35 L 189.5 303.8 L 190.85 304.7 L 191.75 304.7 L 192.65 304.25 L 194.45 304.25 L 195.35 303.8 L 196.7 302 L 197.15 303.8 L 197.6 304.7 L 198.5 304.7 L 199.4 304.25 L 200.3 302.45 L 199.85 301.1 L 198.95 300.2 L 198.95 299.75 L 199.4 299.3 L 201.2 298.85 L 203 298.85 L 204.8 299.75 L 205.7 300.65 L 207.95 300.65 L 210.25 300.2 L 218.35 297.05 L 220.6 296.6 L 222.85 296.6 L 222.85 295.25 L 221.95 295.25 L 221.5 294.8 L 221.5 293.9 L 226.45 294.8 L 228.25 294.8 L 229.6 294.35 L 230.5 293.9 L 231.85 292.55 L 234.55 293 L 237.25 293 L 246.75 290.75 L 249 290.3 L 251.25 290.3 L 259.8 288.5 L 263.4 288.95 L 265.2 289.4 L 267 290.3 L 273.8 286.7 L 281.9 284.9 L 299.55 283.5 L 303.15 284.45 L 304.5 284.45 L 305.85 283.95 L 308.1 282.6 L 309.9 280.8 L 314 278.1 L 315.35 277.65 L 318.5 277.65 L 320.3 278.55 L 319.85 276.3 L 319.85 275.4 L 320.3 274.5 L 320.75 274.05 L 321.65 274.05 L 323 274.5 L 324.35 275.4 L 325.7 275.85 L 323.45 277.65 L 321.65 278.55 L 332 279.9 L 332.9 279.45 L 335.6 278.55 L 337.4 278.55 L 336.5 277.2 L 336.05 276.3 L 336.5 275.4 L 337.4 274.5 L 344.2 271.8 L 346 271.35 L 347.8 271.35 L 351.4 273.15 L 351.4 271.8 L 349.15 269.1 L 350.05 266.85 L 353.65 269.55 L 358.15 271.35 L 367.15 271.8 L 364.45 268.2 L 366.25 267.3 L 367.6 267.3 L 374.35 269.55 L 376.2 269.1 L 372.1 266.85 L 374.8 261.45 L 380.25 264.15 L 378.9 265.05 L 377.55 265.5 L 377.55 266.85 L 378.9 266.85 L 381.6 265.5 L 383.4 265.5 L 385.2 265.95 L 388.8 265.5 L 391.95 265.5 L 393.85 265.95 L 395.65 266.85 L 395.65 262.8 L 391.95 261.45 L 391.95 261 L 392.95 261 L 394.75 261.45 L 394.3 256.95 L 394.75 255.15 L 395.2 254.15 L 395.65 253.7 L 398.8 256.05 L 405.1 259.2 L 406.45 260.1 L 407.35 261.45 L 407.8 259.2 L 409.15 257.4 L 410.5 256.5 L 412.75 255.6 L 417.3 255.15 L 419.55 254.15 L 421.8 253.7 L 421.8 249.65 L 422.25 249.2 L 423.15 248.75 L 424.95 249.2 L 426.75 250.1 L 427.65 250.1 L 428.55 249.65 L 428.55 251.45 L 426.75 254.15 L 425.4 255.6 L 422.7 257.85 L 421.35 258.75 L 420.45 260.1 L 424.5 258.75 L 425.85 258.75 L 426.3 259.2 L 426.75 260.1 L 427.2 261.45 L 427.2 262.8 L 427.65 261.9 L 431.25 259.65 L 433.95 259.65 L 434.85 261.45 L 447.05 259.2 L 448.85 257.85 L 450.65 256.95 L 451.55 255.15 L 450.65 252.35 L 450.65 251.9 L 451.1 251.9 L 452.9 252.35 L 452.9 253.7 L 458.3 252.35 L 458.3 251 L 456.5 251 L 456.05 250.55 L 455.6 249.65 L 456.05 249.2 L 456.5 249.2 L 458.3 249.65 L 457.85 247.85 L 457.85 247.4 L 458.3 246.95 L 459.65 249.65 L 469.1 248.3 L 473.6 246.95 L 477.7 244.65 L 475.85 245.1 L 471.8 244.2 L 470 243.3 L 473.6 241.95 L 476.3 240.15 L 479.05 238.8 L 481.75 237.9 L 480.85 236.1 L 480.85 235.2 L 481.3 234.3 L 486.25 234.3 L 488.05 233.85 L 489.4 232.95 L 490.3 233.4 L 490.3 233.85 L 489.85 235.2 L 488.5 237 L 488.05 237.9 L 490.75 236.55 L 491.2 235.65 L 492.1 234.75 L 494.45 233.4 L 496.25 231.6 L 496.7 230.7 L 496.25 228.9 L 497.6 227.1 L 498.5 227.1 L 499.85 227.55 L 507.05 220.8 L 507.95 219.45 L 508.4 217.65 L 507.95 215.85 L 508.85 215.85 L 509.75 215.4 L 510.2 214.95 L 510.2 213.55 L 510.65 211.3 L 510.65 209.95 L 511.55 209.5 L 512 207.25 L 511.55 205.45 L 509.75 202.75 L 505.25 199.15 L 501.2 198.7 L 493.9 195.45 L 490.75 193.65 L 481.75 192.3 L 474.05 189.6 L 470.45 186.9 L 469.55 186 L 468.65 185.55 L 467.3 185.55 L 465.95 186 L 464.6 184.65 L 462.8 184.65"></path></g><g transform="scale(0.1714,0.1714) translate(2115,63)"><path d="M 459.45 24.2 L 447.8 18.15 L 423.15 8.85 L 421.75 5.55 L 418.1 1.85 L 416.25 0.9 L 412.05 0 L 393.95 4.15 L 392.05 4.15 L 389.75 3.7 L 386.5 6.05 L 383.7 7.45 L 376.7 9.75 L 362.3 11.6 L 356.35 15.35 L 323.75 27.9 L 295.5 43.25 L 292.7 45.1 L 290.35 47.45 L 288.95 50.25 L 292.7 49.75 L 308.4 45.6 L 312.6 45.6 L 316.8 46.5 L 320.95 48.85 L 318.65 71.15 L 317.7 95.3 L 318.65 104.6 L 318.65 106.9 L 317.7 111.1 L 316.3 112.95 L 287.1 123.65 L 269.9 127.4 L 263.35 126.45 L 260.6 125.05 L 255.95 121.35 L 244.75 106.45 L 240.2 102.7 L 237.85 101.8 L 234.6 101.3 L 231.35 101.3 L 232.3 106.9 L 237.85 127.4 L 239.75 138.1 L 239.25 143.2 L 240.65 148.3 L 242.45 163.65 L 242.9 194.85 L 244.3 210.2 L 248.95 225.1 L 251.25 228.35 L 256.85 233.85 L 263.35 237.1 L 271.75 238 L 275.95 237.55 L 289.9 230.2 L 297.35 228.8 L 303.3 230.2 L 304.7 231.5 L 306.55 236.15 L 308.4 245.45 L 308.9 250.1 L 307.95 269.65 L 305.15 272.9 L 299.2 277.55 L 295.95 279.45 L 288.5 282.25 L 256.85 288.3 L 248.95 290.6 L 246.6 291.55 L 238.8 292.45 L 236 292.45 L 233.7 292.95 L 229.5 295.25 L 207.65 297.1 L 202.5 298.5 L 197.85 301.3 L 196 302.7 L 194.15 304.55 L 191.35 309.7 L 196 315.25 L 200.65 319.45 L 201.6 320.85 L 202.05 322.25 L 202.05 325.5 L 201.1 328.75 L 200.65 332.5 L 203.45 344.1 L 206.25 368.3 L 211.8 397.5 L 219.75 412.9 L 228.1 422.2 L 231.8 423.1 L 235.55 423.1 L 238.35 421.7 L 241.15 419.85 L 252.2 411 L 254.05 397.05 L 254.05 393.35 L 253.15 385.9 L 252.2 382.15 L 248.5 376.1 L 244.3 363.65 L 240.65 343.65 L 238.8 337.15 L 234.15 326.9 L 233.2 323.15 L 233.2 320.4 L 233.7 317.6 L 236.95 313.4 L 241.95 310.15 L 256.85 303.15 L 261.5 299.45 L 263.35 297.1 L 258.25 295.25 L 258.7 292.95 L 259.2 292 L 260.1 290.6 L 261.5 291.55 L 263.35 292.45 L 265.25 292.95 L 266.65 293.85 L 266.65 297.1 L 268.95 297.6 L 270.8 297.6 L 274.55 296.65 L 284.3 290.6 L 289.9 287.8 L 292.2 287.35 L 296.85 287.35 L 299.65 288.3 L 301.45 290.15 L 303.3 294.3 L 304.7 305.05 L 305.15 305.95 L 307 305.95 L 307.95 306.9 L 303.3 308.3 L 302.85 310.15 L 302.85 312.45 L 303.3 315.75 L 304.7 319 L 309.35 325.05 L 317.7 332.5 L 319.6 337.15 L 322.35 341.8 L 332.6 352.95 L 334.95 356.65 L 336.8 360.85 L 337.25 363.2 L 336.8 366 L 348.9 365.5 L 351.7 365.05 L 354.45 364.1 L 359.6 361.3 L 362.3 361.8 L 365.1 362.7 L 373 366.45 L 375.3 366.45 L 377.65 366 L 379.05 365.5 L 379.95 364.6 L 384.6 362.25 L 386.5 360.85 L 387.4 359.45 L 388.35 357.6 L 388.8 356.2 L 389.75 352 L 388.35 333.85 L 386.5 329.7 L 381.35 322.7 L 371.6 313.4 L 364.15 307.8 L 354 298.5 L 351.2 294.8 L 347.05 287.35 L 345.65 282.7 L 345.15 278.05 L 346.55 275.7 L 348.4 273.85 L 354.45 269.65 L 360.9 270.6 L 373.9 270.6 L 406.05 267.35 L 424.1 266.85 L 436.2 269.2 L 441.75 271.05 L 456.2 281.3 L 463.65 287.8 L 465.5 290.15 L 466.9 292.45 L 470.15 295.7 L 472.45 299 L 475.75 306.4 L 476.65 310.15 L 477.6 318.05 L 475.75 330.6 L 468.3 354.8 L 465.95 356.65 L 459.9 363.65 L 450.6 378.9 L 442.7 388.2 L 440.35 390.1 L 437.55 391.45 L 436.65 393.8 L 434.8 396.15 L 431.05 399.85 L 426.4 402.65 L 421.75 404.5 L 418.1 407.3 L 408.35 410.55 L 392.05 411 L 381.85 412.4 L 379.95 414.25 L 375.8 415.65 L 374.85 416.15 L 373.9 417.55 L 373.9 418.95 L 386 432.9 L 395.3 440.35 L 400.9 443.1 L 406.5 445 L 412.05 445.9 L 420.45 449.15 L 429.2 449.15 L 447.35 445.9 L 451.05 442.65 L 467.35 431.5 L 470.6 427.75 L 472.95 423.6 L 474.8 418.95 L 479 416.15 L 485.4 409.6 L 491.9 397.5 L 497.05 390.1 L 497.95 385.45 L 501.7 377.05 L 509.15 366 L 520.3 352.5 L 524.95 345.05 L 527.75 337.15 L 529.15 327.35 L 530.05 324.1 L 530.55 320.85 L 530.55 318.05 L 530.05 315.25 L 524 307.8 L 519.85 304.55 L 514.25 299 L 512.85 296.65 L 511.9 293.85 L 511.45 290.6 L 507.75 289.65 L 504 287.35 L 491 277.1 L 487.25 275.25 L 484.95 274.8 L 482.6 274.8 L 480.3 272 L 477.6 269.65 L 474.35 267.8 L 465 263.6 L 450.6 260.35 L 428.25 258.5 L 423.6 255.7 L 419.05 253.85 L 408.8 253.4 L 388.35 257.1 L 384.15 259.45 L 374.85 262.7 L 369.75 263.6 L 360.05 263.15 L 355.4 262.2 L 351.2 260.35 L 348.9 256.15 L 345.65 247.8 L 344.7 238 L 345.15 223.25 L 349.35 219.5 L 364.15 211.6 L 385.1 202.75 L 385.1 199.5 L 384.6 198.1 L 383.7 196.7 L 381.85 194.85 L 379.5 193.45 L 371.15 189.75 L 368.8 188.35 L 366.5 187.4 L 364.15 186.95 L 355.85 186.45 L 353.55 186 L 351.2 185.1 L 346.1 181.35 L 344.25 179.05 L 342.85 176.7 L 341.9 174.35 L 341 165.55 L 342.4 152.5 L 342.4 143.2 L 341.9 139.95 L 343.3 136.7 L 347.95 132.5 L 350.75 130.65 L 353.55 129.7 L 369.25 126.9 L 375.3 125.05 L 377.65 123.65 L 379.95 121.8 L 381.85 119 L 383.25 115.75 L 380.9 113.9 L 379.95 112.95 L 378.55 112.95 L 376.25 110.65 L 372.05 107.85 L 369.75 107.35 L 365.1 106.9 L 355.85 107.35 L 351.2 106.9 L 349.35 106.45 L 345.15 103.65 L 343.3 101.3 L 342.85 93.9 L 343.3 90.15 L 343.75 88.4 L 345.15 87 L 344.7 81.9 L 346.55 67 L 348.9 56.75 L 349.8 45.6 L 354 40.45 L 356.35 38.15 L 359.15 36.3 L 365.1 33.95 L 368.8 33.5 L 372.05 34.4 L 388.35 35.35 L 407.4 39.55 L 417.2 45.1 L 421.75 50.7 L 425 58.15 L 420.8 112.5 L 420.45 130.15 L 414.4 150.2 L 412.55 160.9 L 409.3 192.05 L 408.8 212.05 L 409.3 216.7 L 409.75 218.6 L 410.7 220.45 L 411.6 221.85 L 413 223.25 L 417.2 225.1 L 426.85 220.9 L 435.25 214.85 L 438.5 211.15 L 444.55 202.3 L 449.65 193 L 455.7 177.15 L 479.45 98.55 L 481.7 85.15 L 482.6 81.9 L 484 78.6 L 485.85 75.85 L 489.15 72.55 L 491 68.4 L 491 63.25 L 490.5 60.95 L 489.6 58.6 L 485.85 54.9 L 480.3 41.85 L 478.5 39.05 L 476.2 36.3 L 473.4 34.4 L 469.7 32.55 L 459.45 24.2 M 311.65 183.7 L 309.35 190.65 L 307.95 193 L 303.75 193.45 L 289.9 198.1 L 287.55 198.55 L 285.25 198.55 L 281.5 197.65 L 280.1 196.7 L 278.25 194.85 L 275.95 189.75 L 275.95 184.6 L 268.5 159.5 L 268 147.85 L 293.15 140.85 L 298.25 139.95 L 307.95 139.95 L 313.05 151.1 L 312.15 156.25 L 311.65 183.7"></path><path d="M 157.95 41.85 L 150.95 38.6 L 148.15 35.8 L 143.05 36.3 L 129.55 34.9 L 125.35 34.9 L 123.05 35.35 L 119.4 37.2 L 117.55 38.6 L 116.15 40 L 114.3 42.35 L 105 47.9 L 88.25 60.95 L 77.55 66.5 L 36.2 99.45 L 18.05 111.1 L 8.75 115.75 L 9.25 117.6 L 10.15 119.45 L 12.95 122.25 L 18.55 126.9 L 19.95 128.8 L 17.15 136.7 L 16.2 145.05 L 20.4 185.55 L 20.4 189.25 L 19.45 199.05 L 19.95 218.1 L 19.45 237.55 L 18.55 244.05 L 18.05 257.55 L 18.55 260.35 L 19.45 262.7 L 21.35 265 L 21.35 308.3 L 20.4 309.7 L 19.45 311.55 L 18.55 316.2 L 16.2 347.85 L 16.2 352.5 L 17.15 357.15 L 18.55 361.3 L 17.15 364.6 L 16.2 367.85 L 16.2 372.05 L 16.7 375.65 L 16.2 384.05 L 15.3 387.75 L 13.4 391.45 L 14.35 395.65 L 14.35 404.05 L 13.4 408.2 L 12.05 419.85 L 12.05 423.6 L 13.4 422.65 L 15.75 422.2 L 16.7 422.2 L 17.6 422.65 L 18.05 423.6 L 18.55 425.45 L 17.6 426.35 L 16.7 426.85 L 10.15 428.25 L 9.25 435.2 L 0.95 460.8 L 0 467.3 L 0 471.05 L 0.95 478 L 2.35 481.25 L 2.7 484.05 L 3.65 485.95 L 6.45 489.65 L 10.65 492.45 L 24.1 499.4 L 28.3 502.7 L 31.1 506.85 L 31.1 506.4 L 31.55 505.45 L 32.5 504.55 L 34.35 503.6 L 34.8 504.05 L 34.8 505 L 34.35 505.95 L 34.35 507.8 L 33.9 508.25 L 32.95 508.75 L 35.75 512 L 46.9 508.25 L 52.05 505 L 56.7 500.8 L 57.6 498.5 L 58.1 496.65 L 58.1 491.5 L 57.15 486.4 L 53.9 455.7 L 53.45 428.25 L 50.2 420.3 L 51.1 413.8 L 50.2 401.7 L 47.85 389.6 L 47.4 377.05 L 47.85 373.8 L 48.8 370.65 L 56.25 364.1 L 64.5 359 L 78.95 353.9 L 84.05 353.4 L 85.9 347.35 L 89.65 343.65 L 91.95 342.7 L 113.35 339 L 117.55 336.2 L 119.4 333.85 L 132.8 333.4 L 139.35 331.55 L 151.9 326.45 L 169.1 316.2 L 172.35 316.2 L 176.1 315.75 L 177.5 315.25 L 178.9 314.35 L 181.65 311.55 L 179.8 310.6 L 176.55 309.7 L 175.15 309.7 L 171.9 310.6 L 162.6 316.2 L 159.35 317.6 L 156.1 318.05 L 153.75 316.65 L 150.95 315.75 L 145.85 314.8 L 140.7 314.8 L 135.15 315.75 L 119.4 320.4 L 114.3 321.3 L 98.95 322.7 L 84.05 325.05 L 53.45 332.5 L 49.7 328.75 L 49.25 327.35 L 48.8 324.55 L 49.25 321.3 L 51.1 315.25 L 52.05 308.3 L 49.25 304.55 L 45.05 295.25 L 43.2 285.95 L 44.15 277.1 L 45.55 272.9 L 45.05 252 L 45.55 231.5 L 44.6 205.55 L 40.85 189.75 L 41.8 183.2 L 41.8 176.7 L 39.95 162.75 L 35.3 149.7 L 32.05 143.65 L 27.85 138.55 L 24.1 136.7 L 22.25 134.8 L 21.8 132.95 L 21.8 131.55 L 21.35 127.4 L 22.75 125.5 L 26 123.2 L 27.85 122.25 L 29.7 121.8 L 32.95 121.8 L 34.35 122.25 L 36.7 120.85 L 39 119.95 L 44.15 119 L 55.3 119 L 61.35 120.85 L 81.25 124.1 L 94.75 127.85 L 100.8 131.1 L 106.4 135.3 L 107.8 143.65 L 107.8 147.85 L 106.4 159.5 L 104.05 167.4 L 97.1 181.8 L 87.3 194.4 L 96.6 200.9 L 109.2 207.85 L 121.25 216.25 L 127.25 219.5 L 133.75 222.3 L 140.7 223.25 L 148.15 221.85 L 151.4 220.45 L 153.75 218.1 L 155.6 215.3 L 158.4 206 L 159.35 199.5 L 154.2 185.55 L 149.1 163.2 L 150.05 144.15 L 151.4 139.95 L 155.6 131.55 L 192.75 74.45 L 193.65 72.1 L 193.65 67.9 L 193.2 65.6 L 192.75 64.2 L 189 59.1 L 182.5 53.05 L 177 47 L 173.3 45.6 L 157.95 41.85"></path><path d="M 12.05 425.45 L 12.05 423.6 L 11.1 424.05 L 11.1 424.5 L 12.05 425.45"></path></g><g transform="scale(0.1714,0.1714) translate(2772,63)"><path d="M 210.3 10.1 L 206.7 9.4 L 203.45 7.95 L 197.65 4.35 L 195.15 2.15 L 192.25 0.7 L 188.6 0 L 159.35 4.7 L 159.7 6.5 L 160.45 7.95 L 162.6 10.1 L 165.85 11.55 L 168.75 12.3 L 173.45 15.55 L 179.95 21.35 L 183.2 26.05 L 183.9 28.55 L 183.2 30.75 L 181.05 32.9 L 180.3 33.25 L 178.5 33.25 L 176.7 35.4 L 173.1 38.3 L 166.95 40.85 L 162.25 44.45 L 160.8 44.8 L 156.1 44.8 L 155 45.2 L 153.9 45.9 L 153.55 47.35 L 168.75 48.45 L 171.25 47.35 L 173.8 46.65 L 178.5 45.9 L 183.55 45.9 L 198 48.45 L 207.4 50.95 L 216.4 51.7 L 221.1 50.95 L 225.8 49.5 L 227.25 48.8 L 228.3 48.45 Q 229.05 48.1 229.75 47.7 L 231.95 44.45 L 233.35 39.4 L 234.1 31.45 L 228.3 26.4 L 220 14.45 L 214.3 9.4 L 210.3 10.1"></path><path d="M 252.55 75.55 L 250 74.85 L 247.1 74.45 L 241.35 74.45 L 238.45 74.1 L 237.35 73.75 L 236.25 73 L 222.15 77.7 L 216 80.95 L 210.65 85.3 L 208.15 84.6 L 205.95 84.95 L 203.8 85.65 L 198 89.3 L 194.4 92.2 L 188.25 91.8 L 176.35 95.05 L 170.9 95.05 L 153.9 96.5 L 137.3 95.8 L 112.7 92.55 L 104.45 92.2 L 104.85 93.6 L 105.55 94.7 L 106.3 96.15 L 110.9 99.4 L 113.8 100.5 L 115.95 100.85 L 122.45 103.4 L 133.7 111.35 L 139.45 114.6 L 141.65 115.3 L 143.8 115.65 L 145.95 115.65 L 148.5 117.1 L 150.65 117.85 L 155.35 118.55 L 157.9 118.55 L 160.45 118.2 L 179.95 113.5 L 192.6 110.95 L 194.75 110.95 L 198.75 111.7 L 200.2 112.8 L 200.55 115.65 L 200.55 117.85 L 198.4 124.7 L 197.3 126.9 L 188.6 138.35 L 185.35 144.9 L 185 147.05 L 181.4 155 L 173.1 169.8 L 171.65 173.45 L 170.9 177.4 L 162.25 194.75 L 149.95 217.9 L 131.85 253.7 L 121.4 271.4 L 119.6 277.55 L 104.45 311.8 L 99.75 326.65 L 86.4 350.85 L 84.95 356.25 L 82.4 361.35 L 70.15 380.85 L 65.45 391.7 L 67.6 395.3 L 71.2 405.8 L 73 413 L 75.9 420.25 L 78.45 420.6 L 80.6 420.6 L 84.25 419.9 L 87.85 417.7 L 90.75 414.85 L 95.8 408.3 L 101.6 402.2 L 103.05 400 L 103.75 395.65 L 103.05 390.95 L 103.05 388.45 L 103.4 386.25 L 105.9 380.85 L 106.65 370.75 L 106.3 367.5 L 106.65 363.85 L 108 359.15 L 113.8 349.05 L 119.2 335.3 L 123.2 328.8 L 129 323.4 L 131.15 320.5 L 136.2 316.5 L 145.25 311.8 L 151.05 307.1 L 164.4 297.35 L 171.65 293.35 L 179.25 290.2 L 180.65 287.65 L 182.5 285.85 L 187.55 283.35 L 199.1 281.5 L 203.1 279.7 L 222.9 275 L 230.5 272.1 L 235.55 272.85 L 250.35 272.85 L 270.25 271.4 L 271.7 271.05 Q 272.4 270.65 273.15 270.3 L 276.05 268.5 L 277.5 267.8 L 279.3 267.8 L 280.75 268.15 L 282.55 269.25 L 282.55 271.4 L 281.8 273.2 L 280.75 274.65 L 273.15 281.5 L 268.45 289.1 L 248.55 309.3 L 247.45 315.4 L 247.45 318.3 L 248.2 321.2 L 249.3 323.75 L 252.15 328.45 L 254 330.6 L 266.65 342.15 L 270.25 346.15 L 270.95 348.7 L 270.6 351.2 L 269.9 353.4 L 266.25 359.9 L 265.2 362.4 L 264.45 364.95 L 264.45 366.75 L 264.1 368.2 L 262.65 371.1 L 250 381.95 L 248.55 384.85 L 237.35 396.05 L 211.4 424.6 L 204.9 429.65 L 203.8 431.1 L 203.1 432.55 L 202 436.15 L 201.65 439.75 L 202.7 447.35 L 204.9 449.8 L 205.95 450.55 L 210.65 449.8 L 234.45 449.45 L 243.85 447.75 L 252.55 448.1 L 254.35 447.75 L 255.8 447 L 256.85 445.55 L 259.4 445.55 L 265.9 443.4 L 269.5 441.2 L 271.35 440.5 L 273.15 440.15 L 276.4 440.15 L 279.3 440.5 L 284.35 441.95 L 290.15 439.75 L 296.25 439.05 L 305.65 436.9 L 326.55 423.85 L 329.45 421 L 331.6 417.7 L 332.35 415.55 L 332.7 413.4 L 326.95 403.65 L 318.7 395.3 L 315.8 393.85 L 312.9 391.7 L 303.5 381.6 L 300.95 379.4 L 297.7 377.25 L 297.7 379.05 L 298.45 381.95 L 300.95 385.55 L 301.7 388.8 L 303.85 391.35 L 307.1 397.1 L 308.2 400.35 L 308.9 406.5 L 308.9 409.4 L 308.2 412.65 L 308.2 413.75 L 307.5 414.85 L 306.05 416.3 L 304.2 417.35 L 302.4 418.1 L 301.35 420.25 L 299.9 422.4 L 297 425.3 L 293.4 427.5 L 289.4 429.3 L 285.45 430.35 L 272.05 432.55 L 267.35 431.1 L 262.3 431.1 L 257.6 431.8 L 247.85 434.35 L 237.7 436.15 L 231.2 436.15 L 229.75 434.7 L 228.3 431.8 L 227.6 429.65 L 227.95 427.1 L 229.4 422.4 L 232.65 415.9 L 242.05 404.35 L 247.45 395.3 L 250 395.3 L 250.75 394.95 L 251.8 394.6 L 254 391.35 L 256.5 385.55 L 257.95 384.1 L 260.1 383.75 L 265.2 381.6 L 270.95 376.15 L 278.55 366.4 L 281.8 363.15 L 283.25 362.8 L 284.35 362.05 L 286.5 360.25 L 288.3 358.1 L 291.2 353 L 294.85 347.95 L 297.7 346.15 L 299.9 338.9 L 299.55 337.45 L 298.8 336.05 L 297.7 334.6 L 290.15 329.9 L 281.8 325.9 L 274.2 321.2 L 268.8 316.15 L 267.35 314 L 267 310.75 L 267.35 307.45 L 268.1 304.95 L 270.25 299.9 L 275.65 293 L 284.35 284.4 L 287.95 280.05 L 291.2 275 L 293.4 274.3 L 295.55 272.85 L 297.7 270.65 L 298.45 269.25 L 298.8 267.4 L 302.05 265.25 L 303.85 264.55 L 305.65 264.15 L 314 264.55 L 321.6 263.45 L 345 262.7 L 360.2 260.9 L 364.15 261.3 L 365.95 261.3 L 369.2 262.7 L 370.3 263.45 L 371.75 264.9 L 372.85 266.35 L 373.9 266.35 L 375.35 265.6 L 376.1 261.65 L 377.55 258.75 L 379.7 256.2 L 391.65 249 L 394.5 246.45 L 396.7 246.45 L 398.5 245.75 L 400.3 244.65 L 406.1 238.5 L 407.9 237.05 L 408.25 234.9 L 408.25 232.35 L 407.9 230.2 L 407.55 229.45 L 406.8 228.75 L 403.55 224.05 L 402.1 222.95 L 398.85 221.5 L 396.7 221.15 L 394.5 221.15 L 392.7 219 L 386.2 214.65 L 367.4 205.6 L 363.05 202.35 L 359.45 198.4 L 359.1 195.5 L 359.45 192.95 L 360.2 190.45 L 364.5 180.65 L 365.25 178.15 L 364.9 175.6 L 367.75 165.85 L 368.15 163.7 L 367.05 158.25 L 364.15 154.3 L 360.9 151.05 L 353.65 145.95 L 345.35 142.35 L 336.7 139.45 L 329.8 140.2 L 324.05 142.7 L 314 148.85 L 312.9 150.65 L 310 153.55 L 308.55 154.65 L 301.7 158.25 L 294.85 161.15 L 291.55 163.3 L 290.5 164.4 L 289.4 165.85 L 287.95 167.3 L 286.85 168 L 285.45 168 L 284 168.4 L 277.85 166.95 L 270.95 166.95 L 264.8 165.85 L 252.15 162.95 L 246.4 156.45 L 243.5 153.9 L 239.9 151.75 L 239.15 149.95 L 235.2 146.35 L 233 143.45 L 231.95 141.65 L 231.55 139.45 L 239.9 125.8 L 243.85 121.45 L 245.65 117.5 L 260.1 99.75 L 262.3 95.8 L 263.75 91.1 L 263.4 89.3 L 262.65 87.85 L 261.55 86.75 L 260.5 85.3 L 257.95 82.8 L 256.85 81.35 L 254.7 77 L 252.55 75.55 M 338.85 155 L 339.6 155.7 L 341.75 156.45 L 342.85 156.45 L 343.9 156.1 L 345 155.35 L 346.1 156.8 L 346.45 157.9 L 346.45 161.15 L 345.7 166.2 L 346.1 168 L 345 170.55 L 343.9 172.35 L 340.3 175.95 L 336.7 178.85 L 334.9 180.65 L 333.8 183.2 L 330.55 183.9 L 327.65 183.9 L 324.4 183.2 L 315.45 179.2 L 309.3 177.4 L 308.55 176.7 L 308.2 175.95 L 306.4 174.9 L 300.25 172.35 L 299.9 171.65 L 299.15 170.9 L 299.15 169.45 L 299.9 168.4 L 300.6 166.95 L 305.3 164.75 L 317.6 155.35 L 332.35 152.85 L 337.4 152.85 L 338.85 155 M 316.5 194.75 L 319.4 196.55 L 324.4 202 L 324.4 205.95 L 322.65 212.5 L 319.05 218.6 L 316.9 221.5 L 312.2 226.55 L 311.45 229.45 L 310.35 231.65 L 308.9 233.8 L 307.1 235.6 L 303.85 239.6 L 302.4 242.1 L 301.7 244.65 L 298.45 246.8 L 295.2 247.9 L 283.6 249.35 L 279.65 250.45 L 277.85 251.15 L 273.15 255.15 L 270.6 255.85 L 261.55 256.2 L 252.9 257.65 L 250.35 258.75 L 222.15 262.7 L 208.15 265.6 L 193.7 267.4 L 190.05 269.6 L 178.85 274.3 L 163.3 279 L 161.15 280.8 L 153.9 285.5 L 148.85 287.65 L 143.45 289.1 L 142 288.4 L 140.9 287.3 L 140.55 286.2 L 139.8 284.75 L 139.45 282.25 L 139.45 279.7 L 140.55 278.25 L 141.25 276.1 L 142.35 269.6 L 143.1 267.4 L 144.5 265.25 L 145.95 263.8 L 151.05 250.05 L 154.3 245 L 156.45 242.85 L 156.45 241.75 L 156.8 241.05 L 158.25 239.6 L 160.05 238.5 L 160.8 237.8 L 168.75 223.7 L 193.7 183.9 L 194.75 183.55 L 199.1 178.85 L 200.2 178.15 L 203.1 178.15 L 204.15 179.2 L 206.35 182.85 L 207.05 185.75 L 207.4 189 L 207.4 195.5 L 207.8 198.4 L 218.9 223.7 L 221.45 224.4 L 223.6 224.4 L 225.05 224.05 L 226.85 223.3 L 228.3 222.25 L 231.95 217.9 L 235.2 212.85 L 238.05 210.65 L 239.5 209.95 L 241.7 209.6 L 243.85 209.6 L 244.95 208.5 L 251.1 200.2 L 252.15 199.1 L 250 198.75 L 248.2 198.75 L 246.4 199.1 L 244.2 199.8 L 237 203.8 L 234.8 204.15 L 232.65 205.25 L 230.1 205.6 L 227.6 204.9 L 225.4 203.1 L 224 200.9 L 222.9 198.4 L 222.15 195.85 L 221.8 193.3 L 221.8 185 L 223.25 183.2 L 224.7 179.6 L 224.7 177.4 L 225.4 173.45 L 226.15 172 L 227.6 170.55 L 230.85 171.25 L 242.4 170.9 L 245.3 171.25 L 247.85 172.35 L 250.35 174.5 L 259.05 175.6 L 260.85 176.35 L 264.45 178.5 L 265.55 180.3 L 264.8 182.85 L 263.75 185.35 L 261.95 187.9 L 256.15 194.05 L 253.25 198.4 L 255.4 197.3 L 257.6 196.55 L 259.75 195.15 L 261.55 193.3 L 263.75 192.95 L 265.55 192.25 L 277.1 183.2 L 278.9 182.1 L 280.75 181.4 L 282.55 181.05 L 284.35 181.4 L 286.15 182.1 L 287.95 183.2 L 290.15 185 L 293.4 185.35 L 298.8 187.9 L 303.85 191.15 L 306.75 192.6 L 311.1 193.7 L 312.9 193.3 L 316.5 194.75 M 328 234.55 L 330.2 232 L 339.95 216.8 L 346.1 211.4 L 354.75 213.2 L 358.75 215 L 362.35 217.55 L 375.35 228.75 L 376.45 229.1 L 376.8 229.85 L 376.8 230.55 L 376.45 231.25 L 374.65 234.15 L 368.85 238.15 L 350.8 246.45 L 343.2 247.2 L 321.6 251.15 L 319.75 249.7 L 319.4 248.25 L 319.4 246.8 L 319.75 245 L 321.6 241.75 L 322.3 239.95 L 322.3 238.15 L 328 234.55"></path><path d="M 375.35 275 L 375.7 291.55 L 377.55 307.1 L 377.9 307.85 L 378.6 308.2 L 379.35 311.45 L 379.35 312.9 L 381.85 322.65 L 382.95 332.4 L 383.3 342.9 L 382.95 353.75 L 384.05 355.9 L 384.4 358.1 L 385.1 367.85 L 385.85 371.8 L 384.75 404 L 386.2 419.55 L 385.5 434.35 L 381.15 453.1 L 379 455.6 L 377.15 458.5 L 371.75 469.7 L 369.95 472.6 L 367.75 475.15 L 366.7 475.15 L 365.25 475.5 Q 364.15 476.05 363.05 476.55 L 360.9 478 L 359.1 479.8 L 355.1 482 L 353.3 482 L 351.85 481.25 L 350.8 480.55 L 312.55 490.65 L 288.3 493.2 L 283.6 489.95 L 278.9 489.2 L 274.2 489.95 L 265.2 493.55 L 262.65 494.3 L 257.95 495 L 252.9 494.3 L 250.35 493.2 L 232.65 493.9 L 215.3 493.2 L 213.95 492.5 L 212.85 492.1 L 211.75 492.1 L 210.65 493.2 L 201.3 493.55 L 192.25 493.2 L 183.55 492.1 L 175.6 490.3 L 161.5 491.05 L 137.65 488.15 L 130.8 488.15 L 124.3 487.4 L 92.2 480.9 L 85.3 480.55 L 73 471.15 L 67.6 469 L 62.55 465.75 L 54.25 456.7 L 47.7 446.3 L 41.95 435.45 L 38.3 424.95 L 29.65 391.7 L 28.9 380.85 L 26.75 369.65 L 26.05 335.3 L 26.75 329.9 L 26.05 328.1 L 25.65 326.25 L 25.65 322.3 L 28.55 308.2 L 28.55 304.6 L 28.2 302.4 L 27.5 300.6 L 30 291.95 L 30.75 288 L 30.35 285.85 L 29.65 283.7 L 28.55 281.5 L 25.65 272.1 L 23.5 268.85 L 22.8 268.5 L 20.6 269.25 L 19.55 270.3 L 18.1 272.1 L 18.45 279.7 L 18.1 281.9 L 16.65 286.2 L 14.45 290.2 L 7.25 314 L 5.8 323.75 L 5.8 329.15 L 4.35 337.1 L 3.6 350.15 L 1.8 357.7 L 0 361.35 L 0 384.85 L 3.25 395.3 L 5.8 422.4 L 7.6 430.75 L 9.05 433.65 L 14.45 441.2 L 17 447 L 17.35 448.75 L 17.35 450.55 L 23.85 465.35 L 28.2 472.6 L 34.35 478.75 L 38.3 480.9 L 50.25 492.5 L 55.3 495.75 L 57.1 496.1 L 59.3 496.8 L 61.8 496.8 L 64.7 498.6 L 71.2 501.15 L 88.2 504.4 L 110.2 505.5 L 114.15 506.2 L 122.45 506.95 L 124.3 507.3 L 126.1 508.4 L 135.15 507.65 L 143.45 506.2 L 156.45 505.5 L 164.75 506.55 L 175.25 505.5 L 182.1 505.15 L 188.6 506.2 L 200.9 505.5 L 219.65 505.85 L 238.05 508.4 L 242.4 508 L 250.75 508.75 L 271.35 512 L 273.5 510.9 L 276.05 510.2 L 286.15 509.1 L 312.9 512 L 315.45 511.65 L 324.4 511.65 L 327.3 512 L 333.05 511.25 L 335.6 510.2 L 337.75 510.9 L 339.95 511.25 L 344.65 510.55 L 353.65 507.3 L 355.5 505.85 L 357.3 505.15 L 364.5 501.5 L 365.95 500.45 L 367.75 498.6 L 369.95 498.6 L 374.65 497.2 L 377.55 495.35 L 388.4 486.35 L 391.65 484.5 L 397.4 476.95 L 404.65 464.3 L 408.25 454.9 L 411.85 440.15 L 412.25 435.45 L 411.5 420.25 L 408.6 410.5 L 408.6 401.45 L 407.9 396.75 L 402.1 373.6 L 399.95 370.35 L 398.15 363.15 L 396.7 347.6 L 393.45 337.45 L 384.05 291.95 L 382.95 290.2 L 380.05 280.45 L 379 278.25 L 377.55 276.45 L 375.35 275"></path></g><g transform="scale(0.1714,0.1714) translate(3311,63)"><path d="M 331.05 0 L 330.25 0.8 L 331.45 2 L 332.65 3.65 L 333.05 5.25 L 333.85 6.85 L 334.25 10.05 L 335.05 12.1 L 335.45 13.7 L 332.25 21.75 L 325.9 33 L 320.65 40.25 L 312.6 48.7 L 300.15 65.2 L 287.25 80.9 L 282 85.75 L 280.8 87.75 L 280.4 89.75 L 281.2 93.8 L 282.8 97.8 L 283.2 99.8 L 283.2 101.85 L 288.05 103.45 L 291.65 103.45 L 292.9 102.65 L 295.7 103.85 L 300.95 104.65 L 309 104.25 L 314.2 102.65 L 315.4 103.05 L 316.65 103.05 L 319.05 102.25 L 321.05 101 L 322.65 99.4 L 325.1 99 L 328.6 97 L 335.45 89.75 L 348.35 80.9 L 352.35 76.45 L 353.95 73.65 L 375.3 53.15 L 375.3 52.35 L 375.7 51.5 L 377.3 49.9 L 378.1 49.5 L 380.45 48.7 L 381.65 49.1 L 387.7 44.7 L 397.35 40.25 L 402.6 40.25 L 404.2 40.65 L 405.8 41.45 L 407.4 42.65 L 409.45 47.1 L 409.45 49.5 L 408.65 53.55 L 407.4 55.15 L 405.4 58.75 L 378.85 95.4 L 364.45 111.9 L 347.55 133.6 L 337.45 142.9 L 331.45 146.9 L 328.6 146.5 L 324.7 147.3 L 322.65 148.1 L 319.05 150.55 L 305.35 165.8 L 292.9 173.05 L 278.8 183.55 L 273.55 186.35 L 268.4 187.95 L 262.8 188.75 L 260.35 189.95 L 257.55 190.35 L 252.7 190.35 L 247.5 189.55 L 239.85 189.55 L 235.8 190.35 L 233.8 191.15 L 230.2 193.2 L 224.55 199.2 L 218.6 210.1 L 218.6 211.7 L 218.2 213.3 L 214.55 218.55 L 213.35 220.95 L 217.4 225.4 L 222.55 227.45 L 225.75 227.9 L 235.4 228.3 L 236.6 227.45 L 238.25 227.45 L 239.05 228.3 L 238.65 234.7 L 236.6 240.75 L 230.6 252 L 231.4 252 L 233.4 250.4 L 241.45 239.15 L 245.45 235.95 L 247.5 235.1 L 249.1 233.9 L 251.5 231.1 L 253.1 229.9 L 254.35 228.7 L 256.35 227.9 L 258.35 227.45 L 261.15 225 L 264 223.35 L 276.8 217.35 L 283.2 213.3 L 317.05 200.45 L 331.45 197.6 L 338.7 197.2 L 341.1 195.6 L 349.15 192.4 L 360 189.55 L 370.05 185.15 L 372.5 183.55 L 376.5 179.5 L 379.25 175.5 L 379.25 173.85 L 379.65 172.65 L 378.5 168.65 L 377.3 166.2 L 373.7 161 L 370.9 155.35 L 378.5 144.9 L 404.2 115.5 L 405.8 112.3 L 413.05 103.85 L 423.5 94.2 L 446.4 69.25 L 450.4 64 L 454.85 55.55 L 455.65 52.35 L 455.65 49.9 L 454.85 46.3 L 451.6 41.85 L 450.8 40.25 L 450.4 38.25 L 443.15 36.25 L 436.3 32.6 L 428.35 30.2 L 425.15 31 L 423.5 31.8 L 416.25 29.4 L 386.1 22.55 L 379.25 19.35 L 376.1 17.3 L 373.3 14.9 L 367.65 8.05 L 361.6 5.65 L 354.8 4.05 L 341.1 2.85 L 335.05 0.4 L 332.25 0 L 331.05 0"></path><path d="M 198.05 7.65 L 187.6 6.85 L 184.4 6.05 L 174.7 9.25 L 173.1 9.65 L 171.5 9.25 L 168.3 10.45 L 157.1 12.1 L 149.45 11.7 L 145.85 10.85 L 142.6 9.25 L 141.8 9.65 L 140.6 10.85 L 140.6 11.7 L 141.4 15.7 L 141.4 20.15 L 142.2 23.75 L 143.8 27.8 L 149.85 38.65 L 151.45 42.65 L 152.25 46.7 L 147.45 52.35 L 139 60.4 L 136.55 63.2 L 134.55 66.4 L 125.7 84.1 L 120.85 95.4 L 120.05 99.4 L 118.45 101.45 L 116.05 107.45 L 113.3 120.75 L 111.7 124.75 L 109.3 128.4 L 107.25 130.4 L 105.25 131.6 L 103.65 128 L 102.85 120.35 L 103.25 108.25 L 102.85 100.6 L 93.2 88.95 L 88.75 87.35 L 87.95 86.95 L 87.55 86.55 L 87.15 85.75 L 86.75 84.5 L 84.75 84.95 L 83.1 84.1 L 81.9 83.3 L 80.7 81.7 L 78.3 79.3 L 76.7 78.9 L 75.1 79.3 L 57.05 66.4 L 53.4 65.6 L 50.6 64.4 L 47.8 62.4 L 35.3 49.9 L 32.1 49.1 L 32.9 59.95 L 34.5 66.8 L 35.7 70.05 L 39.75 76.05 L 41.75 78.5 L 42.95 80.9 L 44.15 90.95 L 46.2 96.2 L 50.6 134 L 49.4 136.05 L 48.6 138.05 L 48.6 140.05 L 49 142.5 L 52.6 150.95 L 51 156.15 L 50.6 171.85 L 51 177.5 L 50.2 185.55 L 48.6 190.35 L 47.4 192.8 L 49.4 200.45 L 49.4 204.45 L 47 215.3 L 46.2 222.95 L 45.35 226.25 L 44.95 229.9 L 46.2 240.75 L 46.2 244.4 L 44.95 250.8 L 44.15 253.25 L 42.55 254.85 L 41.35 256.45 L 36.1 258.85 L 24.85 261.3 L 21.25 263.3 L 19.6 264.5 L 18.4 266.1 L 17.6 267.7 L 14 271.35 L 11.15 272.95 L 4.8 275.75 L 2.4 277.8 L 1.6 279 L 0.8 280.6 L 0 284.2 L 0.4 287.05 L 3.2 292.65 L 6.4 295.9 L 7.6 296.3 L 9.95 295.9 L 11.15 295.5 L 11.95 295.9 L 12.8 296.7 L 12.8 298.3 L 16.8 299.9 L 20 301.95 L 23.25 304.75 L 37.75 320.85 L 40.55 321.65 L 42.55 323.25 L 45.8 327.3 L 47 330.1 L 48.6 332.1 L 51 334.1 L 53.85 335.75 L 57.45 336.95 L 64.2 338.15 L 75.1 336.15 L 81.5 332.5 L 86.75 330.9 L 98.8 319.65 L 99.2 317.2 L 100.05 315.6 L 103.25 314 L 106.85 312.8 L 108.5 311.6 L 109.3 310 L 109.7 308.75 L 109.7 307.55 L 109.3 306.35 L 108.5 305.55 L 109.3 303.55 L 110.9 304.35 L 112.1 304.35 L 113.7 303.95 L 116.85 301.1 L 117.65 300.7 L 118.85 300.3 L 121.3 297.1 L 124.1 294.3 L 136.55 284.6 L 139 281.4 L 140.6 277.8 L 141.8 277.4 L 143 276.15 L 145.4 270.95 L 146.65 269.75 L 147.85 269.35 L 156.3 260.9 L 167.15 255.25 L 167.55 252.45 L 168.7 249.6 L 170.7 246.8 L 172.3 245.6 L 173.5 244.4 L 175.55 240.75 L 180.75 233.5 L 195.25 216.55 L 198.05 210.9 L 208.55 198 L 210.15 195.2 L 210.15 193.2 L 210.95 190.35 L 211.75 189.15 L 219.4 180.7 L 220.2 179.1 L 220.2 176.3 L 219.8 174.65 L 217.4 177.5 L 214.15 179.9 L 208.15 183.1 L 206.1 183.55 L 204.5 184.35 L 202.9 185.55 L 201.3 187.15 L 196.85 190.35 L 195.25 190.75 L 191.2 194.4 L 182.35 199.6 L 168.7 204.85 L 159.9 208.9 L 144.2 218.55 L 127.7 226.25 L 125.3 228.7 L 122.9 230.3 L 110.9 234.3 L 107.25 236.75 L 106.05 237.95 L 104.45 238.75 L 102.85 239.15 L 100.05 239.15 L 96.8 238.75 L 95.6 238.75 L 94.4 239.15 L 93.2 237.55 L 92.8 235.1 L 92.8 233.1 L 93.2 230.7 L 92.4 225.4 L 93.2 215.7 L 96 201.65 L 96.4 196.8 L 96 186.35 L 102.05 150.95 L 102.05 144.5 L 102.85 141.65 L 102.85 138.05 L 103.65 135.65 L 104.45 134.85 L 106.05 134.85 L 110.9 149.3 L 115.65 156.55 L 118.05 157.75 L 120.45 159.8 L 128.5 168.25 L 130.55 169.45 L 132.95 170.25 L 138.6 169.45 L 144.2 169.45 L 149.85 170.25 L 155.5 170.25 L 159.9 168.65 L 167.15 167.85 L 169.5 167.05 L 171.1 166.2 L 172.7 165 L 177.95 164.2 L 183.15 162.6 L 188.4 160.2 L 202.5 150.95 L 211.35 143.7 L 214.55 130.8 L 213.75 128 L 213.35 125.15 L 212.95 116.3 L 212.15 113.5 L 210.95 110.7 L 208.95 108.25 L 204.5 106.65 L 200.5 104.65 L 185.6 93.8 L 181.55 91.75 L 176.75 90.95 L 175.95 93.8 L 171.5 101.45 L 163.95 111.5 L 148.65 121.55 L 140.2 125.15 L 130.95 127.6 L 125.7 126.4 L 124.1 125.55 L 123.3 124.35 L 123.3 120.75 L 119.65 110.7 L 119.65 108.65 L 120.05 107.45 L 120.85 106.65 L 123.3 105.05 L 123.3 101.45 L 125.3 95 L 130.55 86.95 L 132.95 81.3 L 140.2 74.85 L 149.05 64.4 L 152.25 61.6 L 155.9 59.15 L 157.5 58.35 L 159.9 57.55 L 169.9 57.55 L 200.5 63.2 L 212.15 58.75 L 215.35 55.55 L 216.6 55.15 L 217.4 54.75 L 218.6 54.35 L 218.6 53.15 L 219.4 51.5 L 219.8 49.9 L 218.6 37.05 L 211.75 19.75 L 208.15 15.7 L 206.5 12.1 L 204.1 9.65 L 202.9 8.85 L 198.05 7.65"></path><path d="M 289.65 302.35 L 292.5 302.75 L 301.75 301.5 L 319.85 296.7 L 332.25 294.7 L 335.45 294.7 L 338.7 295.1 L 341.5 293.9 L 344.3 293.05 L 350.35 292.25 L 373.7 291.45 L 382.05 289.05 L 384.9 287.45 L 386.1 286.25 L 388.1 285 L 393.75 282.6 L 395.35 281.4 L 397.75 277.8 L 398.55 275.35 L 398.95 272.95 L 398.15 269.35 L 397.35 267.3 L 396.15 265.7 L 389.7 260.9 L 382.45 256.45 L 379.65 254.05 L 378.85 250.4 L 377.3 248 L 374.9 246.4 L 371.7 245.6 L 362 244.4 L 359.2 243.55 L 326.6 248.4 L 294.5 254.05 L 263.2 261.7 L 232.6 271.35 L 230.6 271.35 L 228.55 272.15 L 222.55 275.75 L 220.6 275.75 L 219.8 275.35 L 218.6 274.95 L 217.8 273.75 L 216.6 272.55 L 216.15 271.35 L 216.15 270.15 L 217 267.7 L 219.8 264.9 L 216.6 266.5 L 213.75 268.5 L 196.05 284.2 L 178.75 293.05 L 161.9 304.75 L 160.3 308.35 L 159.5 312 L 159.9 319.25 L 162.75 326.5 L 164.35 329.7 L 166.35 332.5 L 170.3 333.3 L 199.25 332.5 L 204.9 329.7 L 206.5 329.3 L 208.15 329.3 L 209.35 330.1 L 210.55 330.5 L 211.35 332.1 L 210.95 333.7 L 207.7 339.35 L 207.3 341.35 L 207.7 342.15 L 208.15 343.4 L 214.15 340.15 L 231.4 328.1 L 232.2 327.3 L 232.2 326.5 L 232.6 325.65 L 233.8 326.05 L 235 327.3 L 235.8 328.9 L 236.6 330.1 L 237 331.7 L 237.4 334.95 L 236.6 341.75 L 236.6 345.8 L 237.85 353.05 L 236.2 357.45 L 236.2 358.65 L 236.6 359.9 L 237 360.7 L 237.85 361.5 L 237.4 363.5 L 236.6 365.1 L 236.2 369.55 L 236.6 373.95 L 237.4 376 L 237.85 377.6 L 238.65 379.2 L 239.05 380.8 L 238.25 383.2 L 237.85 384.05 L 237 384.85 L 234.6 386.45 L 228.95 388.45 L 224.15 391.65 L 222.55 392.5 L 221.35 392.9 L 215.75 392.1 L 214.15 392.1 L 212.55 392.5 L 211.35 393.7 L 204.1 394.1 L 184.4 396.9 L 183.15 394.9 L 179.55 392.5 L 173.5 390.05 L 171.9 388.85 L 169.1 386.05 L 168.3 384.45 L 168.3 381.6 L 169.5 375.6 L 166.35 378 L 161.5 384.45 L 158.3 391.65 L 156.7 400.1 L 156.7 404.55 L 157.5 405.75 L 158.3 406.15 L 159.5 406.55 L 160.3 406.15 L 162.35 405.75 L 163.15 405.35 L 163.95 405.75 L 163.15 412.2 L 164.75 414.2 L 170.3 417.45 L 177.55 417.45 L 188.8 419.45 L 196.45 419.45 L 200.5 418.65 L 202.9 419.45 L 203.3 419.85 L 203.7 420.65 L 203.3 421.85 L 202.5 423.45 L 201.3 425.1 L 200.5 427.1 L 200.1 428.7 L 200.1 429.5 L 200.5 430.3 L 204.9 426.3 L 206.1 425.5 L 208.55 424.65 L 210.15 425.1 L 210.95 423.85 L 212.15 422.65 L 214.55 421.45 L 219.8 419.45 L 221.35 418.65 L 233.8 414.2 L 234.6 415 L 235.8 415.8 L 236.6 418.25 L 237 420.65 L 235.8 428.7 L 235.8 434.75 L 237 436.35 L 237.85 439.95 L 237.85 442 L 237.4 446 L 235.8 449.65 L 181.15 462.5 L 172.3 464.1 L 139.4 474.2 L 122.5 477.4 L 113.7 477.4 L 114.1 479.8 L 112.9 486.25 L 109.3 494.7 L 112.1 502.75 L 114.5 506.35 L 116.05 508 L 118.05 509.6 L 122.9 511.2 L 128.1 512 L 133.35 512 L 135.75 511.2 L 138.2 509.6 L 141 510.4 L 143.8 510.4 L 146.65 510 L 159.9 505.55 L 176.35 503.55 L 179.15 502.35 L 181.15 501.15 L 188.8 499.95 L 210.15 493.5 L 212.95 492.3 L 228.95 489.05 L 234.6 486.25 L 236.6 485.85 L 238.25 485.85 L 239.45 486.25 L 240.25 486.65 L 240.65 487.05 L 241.05 488.25 L 244.65 487.85 L 262.4 483.85 L 270.4 483.85 L 272.05 485.05 L 273.55 485.45 L 286.45 487.05 L 288.85 485.45 L 291.25 484.25 L 294.1 483.85 L 302.95 485.05 L 309.8 485.05 L 313.8 484.25 L 322.65 483.45 L 335.85 484.65 L 344.3 487.05 L 349.95 487.85 L 358.4 490.25 L 364.05 491.1 L 372.1 488.65 L 380.85 483.45 L 384.9 479.8 L 384.5 478.2 L 384.9 477 L 385.3 473.75 L 385.3 470.95 L 384.9 469.75 L 383.65 468.95 L 383.65 466.95 L 383.25 464.9 L 382.45 463.3 L 381.65 462.1 L 379.65 460.1 L 376.9 458.1 L 368.85 453.25 L 367.65 452.05 L 366.85 450.85 L 345.5 441.6 L 329.85 437.15 L 313.8 435.15 L 294.1 436.75 L 290.85 436.75 L 288.05 436.35 L 283.2 434.75 L 282 433.55 L 281.2 432.3 L 280.8 429.5 L 280.8 423.85 L 279.6 421.05 L 278.8 417.85 L 278.4 411 L 279.2 404.15 L 280.8 398.1 L 317.85 385.25 L 333.45 381.6 L 341.9 380.8 L 343.9 381.2 L 345.9 381.2 L 352.75 379.6 L 354.4 379.6 L 356 380 L 372.1 378.8 L 373.7 378 L 374.9 377.2 L 376.1 376 L 378.5 372.35 L 380.05 371.15 L 381.65 370.35 L 381.65 367.95 L 381.25 365.9 L 380.45 364.3 L 376.5 360.3 L 374.1 357.05 L 374.1 353.85 L 371.7 352.65 L 370.45 351.85 L 367.65 351.85 L 366.45 352.25 L 364.45 355.05 L 359.2 349.8 L 331.45 349 L 326.2 349.8 L 321.85 351.45 L 317.45 353.85 L 316.65 353.45 L 316.2 353.05 L 315.4 353.05 L 314.6 352.65 L 313.8 353.05 L 313.4 353.85 L 312.6 355.05 L 312.2 356.25 L 311 353.85 L 309.4 354.65 L 304.15 353.45 L 300.55 353.45 L 298.5 354.25 L 296.9 356.25 L 295.7 355.85 L 292.1 357.05 L 287.25 360.3 L 285.65 358.25 L 283.2 353.85 L 282 345.8 L 282 340.15 L 283.2 338.95 L 284.05 336.15 L 284.05 334.55 L 283.65 332.1 L 283.65 330.5 L 284.05 329.3 L 283.2 324.85 L 284.05 320.45 L 287.25 312 L 286.05 308.35 L 286.85 305.55 L 287.65 304.35 L 289.65 302.35"></path><path d="M 224.55 256.45 L 224.15 257.25 L 224.95 258.45 L 227.35 255.25 L 226.15 254.85 L 224.55 256.45"></path></g><g transform="scale(0.1714,0.1714) translate(3893,63)"><path d="M 407.85 153.9 L 403.25 151.4 L 401.15 150.55 L 399.05 150.55 L 397.7 150.95 L 396.85 151.4 L 396 152.2 L 395.2 153.5 L 392.65 153.9 L 390.55 155.15 L 388.45 156.85 L 381.35 168.6 L 383 175.7 L 383 177.8 L 382.2 182 L 378.8 192.1 L 372.1 207.2 L 369.6 215.55 L 353.25 242.4 L 342.3 267.95 L 341.9 270.05 L 339.8 270.05 L 333.95 280.1 L 332.25 285.55 L 330.15 288.9 L 325.1 294.8 L 312.95 304.85 L 308.35 306.55 L 301.2 307.8 L 297 310.3 L 295.75 312.4 L 292.4 312.4 L 289.9 313.25 L 287.35 314.5 L 281.5 320.8 L 279.4 322.45 L 277.3 323.3 L 261.35 334.65 L 258.85 336.75 L 256.75 339.25 L 250.45 342.6 L 248.75 343.05 L 247.1 343.05 L 245.4 342.2 L 243.75 340.95 L 244.55 320.8 L 244.15 318.3 L 244.15 314.5 L 244.55 313.25 L 244.15 299 L 245 288.05 L 245.85 284.7 L 245.4 283.85 L 246.25 283.05 L 247.1 282.6 L 250.45 283.05 L 259.65 290.6 L 289.9 311.55 L 292.8 307.8 L 294.9 306.95 L 296.15 305.7 L 297.85 301.9 L 298.25 299.8 L 300.35 296.05 L 302.05 294.8 L 302.05 292.7 L 302.9 290.15 L 308.35 281.35 L 309.2 278.85 L 309.6 276.3 L 312.1 271.7 L 316.75 256.2 L 317.15 244.1 L 316.75 242.4 L 315.9 240.35 L 316.75 238.25 L 317.15 235.7 L 316.3 231.95 L 315.45 229.85 L 315.05 227.75 L 315.05 226.05 L 315.9 223.95 L 313.35 213.5 L 312.95 210.55 L 312.95 208 L 313.8 205.5 L 315.05 203.4 L 316.3 203 L 317.15 203 L 319.65 203.4 L 320.95 202.55 L 322.6 202.15 L 323.85 202.55 L 325.55 203.4 L 326.8 204.25 L 328.5 204.65 L 329.75 204.65 L 330.6 203.4 L 330.6 205.1 L 331 206.35 L 332.25 207.2 L 333.5 207.2 L 339.4 205.9 L 339.8 205.5 L 339.8 204.25 L 342.75 203 L 345.7 200.9 L 349.85 195.85 L 353.25 190 L 355.75 183.25 L 355.75 179.05 L 356.15 177 L 356.6 176.15 Q 357 175.95 357.45 175.7 L 357.45 156.4 L 358.25 150.15 L 357.45 145.1 L 357.85 134.6 L 357.45 129.55 L 356.15 127.45 L 355.35 124.95 L 350.3 96.5 L 349.05 93.55 L 349.05 90.2 L 343.15 71.35 L 342.75 68 L 334.75 46.15 L 332.65 41.55 L 324.7 28.15 L 316.3 18.9 L 305.4 11.75 L 299.55 9.25 L 293.65 7.55 L 287.35 6.75 L 271.85 1.3 L 269.75 1.3 L 267.65 0.45 L 265.15 0 L 262.6 0 L 250.45 2.95 L 245 5.45 L 230.75 15.95 L 229.05 18.9 L 218.15 32.3 L 215.2 38.2 L 208.05 46.6 L 205.15 50.8 L 193.8 73.45 L 192.55 75.1 L 190.45 80.55 L 190.45 83.5 L 191.3 81.4 L 192.55 79.3 L 195.9 75.1 L 199.7 71.75 L 202.2 68 L 204.7 66.7 L 217.3 55.4 L 219.8 54.15 L 224 50.35 L 226.1 49.1 L 233.25 47 L 238.7 46.6 L 259.65 48.25 L 277.3 52.9 L 281.05 55.4 L 287.8 57.9 L 291.55 60.85 L 292.8 63.35 L 297.45 68.8 L 299.1 72.2 L 299.55 74.3 L 299.1 75.95 L 302.05 82.25 L 302.45 85.6 L 302.45 98.6 L 303.75 108.25 L 303.3 124.55 L 303.75 127.9 L 302.05 143.85 L 301.2 147.2 L 299.95 150.15 L 298.25 152.65 L 294.1 150.95 L 290.3 148.85 L 289.05 147.6 L 287.35 146.35 L 286.1 144.65 L 285.25 142.6 L 283.15 142.15 L 281.5 140.9 L 279.8 140.05 L 276.05 135.85 L 272.7 133.35 L 271.4 135.45 L 270.15 136.7 L 267.25 137.55 L 259.65 137.1 L 259.65 138.8 L 258 142.15 L 256.75 143.4 L 255.9 144.65 L 255.05 146.35 L 254.65 148.05 L 255.05 150.15 L 252.55 155.15 L 246.65 164.8 L 245.85 167.75 L 245.85 170.25 L 245 171.5 L 244.55 172.8 L 243.75 174.05 L 242.05 174.05 L 241.2 172.35 L 239.95 171.1 L 240.4 165.25 L 239.95 159.35 L 233.65 124.95 L 232.4 122.45 L 232 120.35 L 232 117.9 L 233.25 110.75 L 233.25 108.25 L 232.8 105.75 L 234.5 101.55 L 234.9 93.15 L 235.35 91.05 L 236.6 88.95 L 233.25 83.1 L 232 81.4 L 230.3 80.15 L 228.65 79.3 L 226.55 78.9 L 224.45 78.9 L 221.9 80.55 L 216.45 83.1 L 214.35 84.35 L 216.05 90.2 L 218.55 94.4 L 221.5 97.35 L 222.35 99.85 L 222.75 101.95 L 222.75 104.5 L 223.2 107 L 223.2 109.5 L 224 111.6 L 225.25 112.85 L 224.45 115.4 L 223.6 120.35 L 225.25 130 L 224.45 144.25 L 224 168.6 L 224.85 188.3 L 223.2 206.75 L 223.6 210.95 L 224.45 213.5 L 224.45 218.5 L 223.6 221.05 L 223.2 223.55 L 223.2 225.65 L 224.45 229.4 L 225.25 230.25 L 224.85 245.35 L 224 252.85 L 223.2 256.6 L 221.5 259.95 L 221.5 269.2 L 220.65 272.55 L 221.1 274.2 L 219.8 275.5 L 219.8 279.25 L 219.4 283.05 L 219.4 284.7 L 219.8 286.4 L 221.1 287.25 L 222.75 287.65 L 222.35 288.9 L 221.5 290.15 L 220.65 288.5 L 220.25 288.05 L 219.8 288.5 L 218.15 307.35 L 216.9 313.25 L 216.05 348.9 L 213.1 357.7 L 213.1 361.9 L 214.35 364 L 213.55 369.05 L 214.35 383.7 L 213.55 385.8 L 213.1 388.25 L 213.1 390.35 L 213.55 392.85 L 213.1 394.55 L 215.6 403.8 L 216.05 405.85 L 216.05 407.55 L 215.2 410.9 L 215.6 414.7 L 215.6 416.35 L 215.2 418.05 L 214.35 419.3 L 212.25 420.55 L 213.55 422.25 L 214.35 424.35 L 214.8 426.45 L 214.35 433.15 L 213.55 436.9 L 214.35 438.6 L 214.35 440.7 L 214.8 442.8 L 215.2 443.65 L 216.05 444.45 L 219.4 453.7 L 239.95 487.25 L 245.85 495.25 L 259.65 504.9 L 265.15 507.4 L 277.7 508.65 L 279.8 508.65 L 281.9 508.25 L 281.5 508.65 L 281.5 509.1 L 281.9 509.9 L 283.15 511.6 L 284 512 L 285.25 512 L 287.35 509.9 L 289.45 509.1 L 291.55 508.65 L 299.1 508.65 L 301.2 508.25 L 303.75 507.4 L 304.55 505.7 L 305.4 504.9 L 306.65 504.45 L 308.35 504.45 L 309.6 504.05 L 310.45 503.6 L 311.3 502.35 L 311.3 500.7 L 315.05 498.6 L 319.65 492.7 L 321.35 488.95 L 323.85 488.1 L 325.55 486.85 L 327.2 485.15 L 328.05 483.05 L 330.6 479.7 L 332.25 478.45 L 334.35 477.6 L 336.45 473.4 L 339.8 464.6 L 341.9 461.25 L 343.6 460.4 L 344.4 459.15 L 346.1 454.1 L 346.95 452.85 L 348.2 451.6 L 352.8 439 L 353.65 435.25 L 356.15 429.8 L 357 426.85 L 360.8 405.85 L 361.2 400 L 365.8 387.85 L 369.6 375.35 L 371.25 372.8 L 372.1 367.8 L 371.7 364.85 L 371.7 362.35 L 372.1 359.8 L 372.55 358.55 L 373.35 357.3 L 374.2 356.45 L 375.9 356.05 L 381.35 356.05 L 397.3 359.4 L 400.7 361.5 L 412.45 366.1 L 420 369.9 L 421.3 371.15 L 422.95 372.4 L 425.05 376.15 L 443.1 378.25 L 448.95 380.8 L 450.65 382.9 L 456.95 387 L 466.6 390.75 L 469.5 389.1 L 471.2 387.85 L 472.9 387 L 474.55 385.4 L 475.4 382.9 L 475.8 380.35 L 476.65 377.85 L 473.7 365.25 L 472.45 362.35 L 469.1 357.7 L 466.6 356.05 L 465.35 353.1 L 461.55 348.9 L 459.45 347.2 L 454.4 344.7 L 451.9 343.05 L 449.8 340.95 L 448.15 337.15 L 439.75 327.1 L 436.4 323.75 L 428.85 317.85 L 408.25 306.95 L 388.45 301.5 L 380.5 298.15 L 376.7 295.6 L 376.3 288.05 L 378.4 272.15 L 378.4 268.35 L 377.55 264.6 L 380.9 258.7 L 383 255.75 L 384.3 254.5 L 385.95 253.25 L 387.2 250.4 L 393.5 244.1 L 395.6 242.4 L 399.05 237.8 L 399.9 234.85 L 409.55 226.05 L 412.05 222.7 L 412.45 221.45 L 413.3 219.75 L 415 217.65 L 417.1 216 L 419.6 214.75 L 419.2 212.65 L 419.6 210.95 L 420.45 209.7 L 424.2 207.2 L 425.45 205.9 L 426.75 204.25 L 427.15 202.15 L 428 200.05 L 433.05 192.9 L 433.85 190.8 L 434.3 188.7 L 435.1 187.45 L 435.55 185.8 L 435.1 184.1 L 435.1 182.45 L 433.85 178.65 L 432.2 175.7 L 426.3 168.15 L 419.6 161.05 L 419.6 159.35 L 419.2 158.5 L 418.35 157.7 L 417.1 156.85 L 414.55 156 L 412.05 155.6 L 407.85 153.9 M 251.3 354.75 L 252.95 356.05 L 254.65 356.05 L 256.3 355.6 L 260.95 353.95 L 262.6 353.5 L 264.3 353.95 L 277.3 353.1 L 278.55 352.25 L 280.65 351.85 L 289.9 351 L 292 351 L 293.65 350.15 L 306.25 350.6 L 315.05 349.3 L 317.55 348.5 L 328.05 348.5 L 332.65 349.3 L 334.75 350.6 L 336.05 352.25 L 337.3 352.25 L 338.15 353.1 L 338.55 353.95 L 338.15 355.2 L 337.3 356.85 L 333.5 374.5 L 330.6 377.45 L 326.4 384.15 L 318.85 398.75 L 315.9 402.1 L 316.75 403.35 L 316.75 405.05 L 316.3 406.3 L 315.45 407.55 L 313.35 409.65 L 312.55 410.9 L 312.1 412.15 L 302.9 426.85 L 301.2 428.55 L 296.15 436.5 L 289.45 444.05 L 277.7 452.85 L 273.5 454.55 L 270.15 454.95 L 265.15 453.3 L 262.6 451.6 L 255.05 443.65 L 252.55 439.45 L 249.2 431.45 L 247.95 427.25 L 247.1 418.9 L 247.5 410.05 L 246.25 407.95 L 245.4 405.45 L 243.75 389.1 L 244.55 387 L 245 379.95 L 244.55 366.1 L 245.4 361.9 L 246.25 359.8 L 247.5 358.15 L 251.3 354.75"></path><path d="M 137.6 111.6 L 130.05 109.5 L 113.7 108.25 L 111.6 108.25 L 109.9 107.85 L 103.6 103.65 L 97.3 100.7 L 95.65 100.3 L 91.85 101.95 L 88.5 104.5 L 86.4 104.9 L 83.9 104.9 L 67.55 111.6 L 62.05 112.85 L 60.4 113.7 L 56.6 117.5 L 55.8 118.65 L 54.5 119.1 L 53.25 118.25 L 51.6 116.65 L 52.85 114.95 L 52.45 114.15 L 52.45 113.7 L 49.5 113.7 L 49.05 112.85 L 50.75 109.5 L 49.5 108.7 L 48.65 107.4 L 46.95 103.65 L 43.2 108.25 L 41.95 117.5 L 36.9 135.85 L 30.2 150.55 L 25.15 158.95 L 24.3 161.85 L 23.05 168.6 L 20.55 172.8 L 18 182.85 L 17.2 184.95 L 15.5 187.05 L 15.1 189.55 L 10.45 201.3 L 9.65 203.85 L 9.2 206.35 L 9.65 208.85 L 9.65 210.95 L 8.35 217.65 L 8.35 222.3 L 9.2 224.8 L 7.95 226.9 L 7.1 229 L 5.85 233.6 L 5.45 244.1 L 4.6 246.2 L 3.75 251.25 L 4.2 252.4 L 4.6 253.25 L 0.8 304 L 1.65 305.7 L 1.65 306.95 L 0 313.25 L 0.8 316.2 L 1.25 319.1 L 1.25 322.45 L 2.5 328.75 L 2.5 334.65 L 2.1 338 L 0.8 340.95 L 1.65 344.3 L 1.65 347.65 L 0 358.95 L 0.4 361.9 L 1.65 365.25 L 0.4 366.5 L 0 368.2 L 0.8 371.15 L 2.5 374.5 L 2.9 376.15 L 2.9 377.85 L 2.5 385.4 L 2.9 388.65 L 4.2 391.6 L 5 394.95 L 6.3 397.9 L 16.75 415.1 L 22.2 426.85 L 24.75 428.55 L 31.85 435.65 L 34.4 437.75 L 37.3 439 L 39 439.45 L 42.35 439.45 L 44.45 439 L 46.55 439.85 L 50.75 440.7 L 60 440.3 L 62.9 440.7 L 70.05 435.25 L 74.65 430.65 L 75.9 428.55 L 79.7 429.35 L 81.8 429.35 L 83.9 429.8 L 93.1 449.1 L 95.65 449.9 L 97.3 451.2 L 99 452.85 L 102.75 458.3 L 104.85 460 L 106.95 461.25 L 111.15 460 L 119.55 456.2 L 123.35 453.7 L 130.05 447.85 L 135.9 440.7 L 137.15 438.2 L 142.65 423.9 L 146 418.45 L 152.25 377 L 151.85 374.9 L 151.85 368.6 L 152.7 364.4 L 152.7 362.35 L 152.25 360.65 L 153.95 357.3 L 154.35 353.5 L 154.35 346.8 L 155.2 340.5 L 155.2 334.65 L 156.05 328.75 L 158.15 322.45 L 156.45 317.85 L 156.45 315.35 L 157.3 313.65 L 158.15 312.4 L 157.75 310.7 L 157.75 309.05 L 159 302.35 L 159 299.4 L 159.4 296.05 L 159.4 280.5 L 160.25 277.6 L 161.9 273.8 L 160.25 269.6 L 160.25 268.35 L 160.65 267.5 L 161.5 266.25 L 162.35 264.6 L 162.75 262.9 L 162.75 253.25 L 165.3 227.3 L 167.8 215.55 L 167.8 205.9 L 167.4 202.55 L 168.2 197.1 L 169.05 174.9 L 167.4 158.1 L 166.95 156.85 L 166.55 156 L 164.85 153.9 L 164 153.05 L 163.6 152.2 L 163.6 151.4 L 164.45 150.15 L 161.9 145.5 L 156.05 132.1 L 148.1 119.9 L 143.9 116.65 L 142.65 114.95 L 137.6 111.6 M 96.05 139.2 L 99.4 133.75 L 104.45 129.55 L 106.15 128.75 L 107.8 128.3 L 109.5 128.75 L 114.5 131.65 L 116.2 132.95 L 118.3 133.35 L 121.25 141.75 L 121.65 146.35 L 121.65 166.05 L 122.9 170.25 L 120.8 180.35 L 116.2 224.8 L 115.35 226.5 L 114.1 227.75 L 112.85 228.6 L 111.15 229.4 L 108.2 230.25 L 98.55 230.25 L 95.2 230.7 L 93.95 231.1 L 92.3 232.35 L 89.75 233.2 L 87.25 234.45 Q 86.65 234.85 86 235.3 L 84.3 237.8 L 83.9 239.5 L 84.3 240.75 L 84.75 241.6 L 85.55 242 L 86.85 242.4 L 86 243.25 L 85.55 243.25 L 83.9 242.4 L 83.05 244.5 L 81.35 246.2 L 77.2 248.7 L 74.25 251.65 L 74.25 254.95 L 74.65 256.2 L 76.75 256.2 L 78.45 257 L 79.7 258.3 L 82.2 262.9 L 83.45 264.6 L 85.15 266.25 L 84.3 270.05 L 83.45 291 L 82.2 299.4 L 82.2 306.1 L 77.6 325.4 L 75.1 331.3 L 72.55 335.5 L 71.3 336.3 L 68.8 332.1 L 66.7 322.45 L 66.7 307.35 L 65.45 297.7 L 64.6 259.95 L 66.25 256.6 L 65.45 254.1 L 65 241.6 L 66.7 237.8 L 67.55 234.85 L 67.95 231.95 L 68.35 214.75 L 72.15 207.6 L 73.8 205.5 L 82.2 202.55 L 81.35 201.75 L 80.95 200.9 L 81.35 198.8 L 83.9 197.95 L 83.05 200.9 L 85.55 200.9 L 86.85 200.05 L 87.65 198.8 L 88.1 197.1 L 88.9 195.45 L 89.75 194.2 L 93.55 190.4 L 95.2 187.05 L 95.2 183.7 L 94.8 180.75 L 92.7 172.35 L 92.7 166.9 L 93.1 163.95 L 93.1 153.9 L 93.55 152.2 L 94.4 150.95 L 93.95 148.05 L 94.4 145.1 L 96.05 139.2"></path></g></g></svg>