<svg xmlns="http://www.w3.org/2000/svg" viewBox="0.06428571045398712 1.3810811042785645 535.1357421875 101.56891632080078" data-asc="0.88" width="535.1357421875" height="101.56891632080078"><defs/><g><g><g transform="translate(0, 0)"><path d="M14.85 17.85Q15.25 17.85 16.83 18.63Q18.40 19.40 18.40 19.60Q18.40 20.20 19.23 20.55Q20.05 20.90 21.45 20.90Q24.05 20.90 23.85 21.65Q23.70 22.40 20.70 23.55Q18.80 24.25 18.18 24.67Q17.55 25.10 16.90 26.15Q16.25 27.20 16.18 27.55Q16.10 27.90 16.40 28.40Q17.15 29.65 18.50 28.60Q18.85 28.35 19.35 28.35Q19.85 28.35 21 28.60Q22.95 29.05 23.60 29.73Q24.25 30.40 24.10 31.70Q24 32.75 24.15 33.08Q24.30 33.40 25.55 34.20Q27.15 35.25 28.50 35.55Q29.60 35.85 30.52 36.63Q31.45 37.40 33.10 39.50Q34.50 41.15 34.40 41.90Q34.25 42.85 32.33 43.67Q30.40 44.50 27.85 44.83Q25.30 45.15 22.58 45.05Q19.85 44.95 18.15 44.20Q17 43.70 16.33 42.63Q15.65 41.55 15.65 40.25Q15.65 39.40 15.15 39.30Q14.65 39.20 13.15 39.65Q11.50 40.15 11.32 39.95Q11.15 39.75 13.30 37.75L15.35 35.75L15.40 33.55Q15.40 29.95 14.70 29.90Q14.10 29.75 12.50 32.05Q11.90 32.85 11.15 34.10Q8.45 38.20 7.48 39.52Q6.50 40.85 5 42.30Q2.80 44.55 2.70 44Q2.70 43.85 3.55 42.75Q4.60 41.60 4.75 41.25Q4.90 40.90 6.05 39.15Q6.85 37.85 9.03 33.35Q11.20 28.85 11.20 28.40Q11.20 28.05 9.70 29.05Q6.50 31.35 4.35 30.50Q3.35 30.10 3.30 29.50Q3.30 29.15 3.70 29.15Q4.10 29.15 7.10 27.63Q10.10 26.10 11.65 25.05Q13.40 24 14.03 22.42Q14.65 20.85 13.95 19.55Q13.55 18.90 14.10 18.38Q14.65 17.85 14.85 17.85M19.60 36.60Q18.40 38.10 18.40 39.40Q18.40 40.40 18.63 40.63Q18.85 40.85 20.35 41.30Q22.10 41.85 24.50 41.73Q26.90 41.60 28.45 41Q31.05 39.90 27.95 37.85Q26.45 36.85 25.08 35.17Q23.70 33.50 23.35 33.35Q23 33.20 21.88 34.23Q20.75 35.25 19.60 36.60M24.75 17.85Q25.30 16.90 28.25 18.45Q29.85 19.25 30.80 20.25Q31.75 21.25 31.75 22.15Q31.75 24.80 27.85 21.60Q27.55 21.30 27.20 21Q25.40 19.45 24.95 18.82Q24.50 18.20 24.75 17.85M1.05 15.85Q2.05 13.70 2.45 13.70Q3.45 13.70 3.80 15.97Q4.15 18.25 3.45 20.05Q2.70 22.10 1.58 21.88Q0.45 21.65 0.10 19.40Q0 18.55 0.18 17.85Q0.35 17.15 1.05 15.85M11.75 3.50Q11.95 3.15 12.23 3.20Q12.50 3.25 13.50 4Q16.35 5.85 17.15 7.45Q17.50 8.15 17.78 8.32Q18.05 8.50 18.65 8.35Q21.60 7.85 22.48 7.82Q23.35 7.80 24.65 8.15Q26.45 8.65 27.10 9.25Q27.65 9.75 28.15 10.70Q28.65 11.65 28.65 12.15Q28.65 12.75 26.85 13.55Q25.05 14.35 23.35 14.60L21.60 14.80L22.55 13.85Q23.45 12.85 23.80 12.10Q24.05 11.65 24.03 11.45Q24 11.25 23.60 11Q21.30 9.80 16 12.40Q10.50 15.10 8.55 15.10Q8.10 15.10 7.45 14.70Q6.80 14.30 6.43 13.80Q6.05 13.30 6.20 13.10Q6.55 12.80 8.65 12.05Q12.95 10.40 12.95 9.95Q12.95 9.65 11.90 9.65Q10.85 9.65 10.85 9.45Q10.85 9.25 11.75 7.95Q12.50 6.90 12.55 6.38Q12.60 5.85 12.05 4.80Q11.50 3.75 11.75 3.50ZM66.90 27.35Q67.10 26.85 67.42 26.93Q67.75 27 69.65 27.75Q71.35 28.45 72.35 28.45Q73.35 28.45 74.85 27.70Q75.50 27.35 76.05 27.38Q76.60 27.40 78 27.70Q84 29.05 76.95 29.85Q74.80 30.10 74.10 30.32Q73.40 30.55 72.90 31.15Q72.10 32.05 72.18 32.80Q72.25 33.55 71.97 34.52Q71.70 35.50 72.15 37.20Q72.50 38.85 72.22 41.23Q71.95 43.60 71.30 44.30Q70.80 44.95 69 45.15Q67.75 45.25 67.38 45.17Q67 45.10 66.35 44.35Q65.50 43.30 63.70 42.45Q61.35 41.25 61.25 40.65Q61.25 40.55 61.40 40.55Q61.75 40.55 63.40 41.20Q67.35 42.65 68.05 41.70Q68.60 41.10 68.83 38.67Q69.05 36.25 68.83 34.13Q68.60 32 68.05 32Q67.55 32 64.45 33.30L61.40 34.65L61.50 35.90Q61.65 37.15 61.13 37.73Q60.60 38.30 60.50 39Q60.35 39.40 60.03 39.55Q59.70 39.70 58.55 39.80Q56.80 39.85 56.40 39.55Q56 39.25 56.55 38.20Q57.05 37.30 56.78 37Q56.50 36.70 55.20 36.60Q54.25 36.55 53.10 36.10Q51.95 35.65 51.95 35.40Q51.95 35.15 53.40 34.80Q54.85 34.45 55.90 34.05Q62.75 31.60 65.90 30.55Q67.60 30 67.90 29.55Q68.20 29.10 67.40 28.35Q66.70 27.80 66.90 27.35M67.75 8.55Q68.65 7.95 70.22 8.30Q71.80 8.65 71.80 9.45Q71.80 9.70 70.78 10.30Q69.75 10.90 69.75 11.13Q69.75 11.35 71.40 11.75Q73 12.15 73.53 12.47Q74.05 12.80 74.05 13.30Q74.05 13.95 71.45 14.70Q69.65 15.20 67.20 16.38Q64.75 17.55 63.15 18.70Q62.15 19.40 62.35 20.20Q62.55 21 62.05 23.55Q61.60 25.85 61.60 26.52Q61.60 27.20 62.10 27.20Q62.60 27.20 64.47 25.75Q66.35 24.30 66.35 23.90Q66.35 23.40 65.95 22.75Q65.55 22.10 65.85 21.10Q66.05 20.50 66.38 20.32Q66.70 20.15 67.75 20.15Q69.35 20.15 70.75 19.22Q72.15 18.30 72.47 18.30Q72.80 18.30 74.35 16.75Q75.45 15.65 75.88 15.45Q76.30 15.25 77.20 15.35Q78.75 15.65 79.33 15.97Q79.90 16.30 79.60 16.70Q79.30 17.10 78 17.75Q76.40 18.60 75.60 19.45L74.80 20.30L76.75 20.90Q78.65 21.40 79.38 22Q80.10 22.60 79.75 23.30Q79.45 23.85 78.65 23.95Q77.85 24.05 74.30 24.15L69.15 24.30L65.55 27.60Q62 30.95 61.45 30.95Q60.90 30.95 60.15 29.90Q59.60 29.15 59.53 28.55Q59.45 27.95 59.60 26.25Q59.85 23.60 60.05 22.30Q60.25 21 59.90 21Q59.55 21 57.20 22.35Q54.85 23.70 53.75 23.92Q52.65 24.15 52.15 24.90Q50.40 27.35 49.05 30.10Q48.05 32.05 46.40 33.35Q43.90 35 43.75 33.95Q43.75 33.20 44.17 32.65Q44.60 32.10 45.75 31.30Q46.85 30.55 48.42 27.60Q50 24.65 50.73 23.63Q51.45 22.60 51.98 21.55Q52.50 20.50 53.70 18.65Q56.05 15.10 56.05 13.55Q56.05 13 56.38 12.50Q56.70 12 57.25 12.45Q57.80 12.90 57.80 14.63Q57.80 16.35 57.23 17.50Q56.65 18.65 56.88 18.85Q57.10 19.05 59.55 17.60L65.30 14.20Q68.75 12.25 68.75 12.10Q68.75 12.05 68.65 11.90Q68.50 11.75 64.90 13.50Q61.65 15.10 61.80 14.80Q62.15 14.45 62.20 14.25Q62.25 14.05 62.08 14.02Q61.90 14 61.50 14.20Q60.70 14.65 60.03 14.42Q59.35 14.20 59.10 13.50Q58.95 12.55 59.15 12.17Q59.35 11.80 60.10 11.80Q60.65 11.80 63.38 10.63Q66.10 9.45 67.75 8.55M66.35 3.75Q68.25 3.05 68.97 2.97Q69.70 2.90 71.28 3.13Q72.85 3.35 72.85 3.95Q72.85 4.40 72.05 4.63Q71.25 4.85 68.30 5.15Q65.95 5.35 62.80 7Q57.70 9.60 56.55 8.70Q55.55 7.85 57.05 7.45Q57.95 7.25 61.03 5.88Q64.10 4.50 66.35 3.75ZM114.50 26.50Q116.30 26.15 116.70 26.05Q117.80 26 121.40 28.07Q125 30.15 126.15 31.55Q127.30 32.90 127.30 33.58Q127.30 34.25 126.18 35.23Q125.05 36.20 124.33 36.23Q123.60 36.25 121.40 35.40Q119.70 34.75 119.70 34.10Q119.70 33.45 119.45 33.05Q119.25 32.70 116.75 30.65Q114.25 28.60 113.45 28.10Q111.70 27 114.50 26.50M106.55 16.40Q106.55 15.80 108.55 16.75Q109 16.95 109.40 17.20Q110.75 17.95 110.83 18.80Q110.90 19.65 109.80 21.65Q109.05 23.10 108.90 23.57Q108.75 24.05 109.10 24.40Q109.90 25.15 110.35 29.63Q110.80 34.10 110.30 36.60Q110.05 38.05 109.83 38.38Q109.60 38.70 108.90 38.90Q107.90 39.05 106.45 39.02Q105 39 104.25 38.80Q103.40 38.55 102.78 37.38Q102.15 36.20 100.95 35.50L99.75 34.80L98.35 36.10Q94.80 39.30 93.15 38.95L91.20 38.55Q90.20 38.30 88.75 39.05Q87.20 39.85 87.20 39.60Q87.15 39.35 88.65 38.40Q90.25 37.25 91.75 36.13Q93.25 35 93.70 35Q94.20 35 96.80 32.48Q99.40 29.95 100.90 27.95Q102.10 26.35 102.33 25.88Q102.55 25.40 102.25 24.85Q101.80 24.20 101.60 23.45Q101.40 22.95 101.67 22.85Q101.95 22.75 103.15 22.75Q104.55 22.75 105.13 22.27Q105.70 21.80 106.70 19.75Q107.30 18.65 107.33 18.25Q107.35 17.85 107.05 17.40Q106.55 16.70 106.55 16.40M105.55 29.75Q105.50 28.15 105.25 28.15Q104.90 28.15 103.15 30.45Q101.40 32.75 101.40 33.25Q101.40 33.65 101.75 33.83Q102.10 34 103.30 34.10Q105.20 34.35 105.30 34.25Q105.65 33.90 105.55 29.75M111.15 9.40Q112.85 8.75 113.72 8.63Q114.60 8.50 115.90 8.65Q117.40 8.75 118.45 9.13Q119.50 9.50 119.60 9.90Q119.95 12 119.40 12.25Q119 12.55 116.50 12.60Q113.65 12.60 110.25 13Q106.85 13.40 106.25 13.70Q105.50 14.10 105.05 15.10Q104.40 16.25 102.60 17.55Q100.80 18.85 99.25 19.25Q97.95 19.50 97.38 19.47Q96.80 19.45 95.80 19.05Q93.35 18.15 92.40 16.60Q91.70 15.45 92.85 15.45Q93.50 15.45 95.65 14.47Q97.80 13.50 99.17 13.05Q100.55 12.60 100.97 12.30Q101.40 12 101.40 12.22Q101.40 12.45 101.88 12.07Q102.35 11.70 102.53 11.90Q102.70 12.10 103.38 11.73Q104.05 11.35 105.38 11.15Q106.70 10.95 106.95 10.77Q107.20 10.60 107.83 10.50Q108.45 10.40 111.15 9.40ZM165.85 33.90Q165.75 33.15 165.80 32.95Q165.85 32.75 166.30 32.75Q166.90 32.80 168.50 34.27Q170.10 35.75 170.40 36.50Q170.65 37.25 170 37.90Q169.65 38.30 168.93 38.42Q168.20 38.55 166.15 38.55L162.85 38.55L163.90 37.60Q165.15 36.45 165.60 35.65Q166.05 34.85 165.85 33.90M141.20 10.70Q141.75 10.55 142.20 10.60Q142.65 10.65 143.75 11.20Q144.80 11.65 145.13 12.17Q145.45 12.70 145.75 14.50Q145.95 15.95 146.30 16.20Q147.05 16.65 145.75 19.50Q145.05 21.20 144.82 22.72Q144.60 24.25 144.35 28.45Q144.20 32.50 143.68 34.60Q143.15 36.70 143.15 37.85Q143.15 38.95 142.93 39.42Q142.70 39.90 141.95 40.05Q140.55 40.50 139.90 38.70Q139.25 36.90 139.85 34.35Q140.45 32.05 140.78 29.23Q141.10 26.40 140.80 26.15Q140.50 25.85 138.55 26.60Q137.10 27.10 136.70 27.13Q136.30 27.15 135.55 26.70Q134.45 26.10 134.25 25.10Q133.95 24.10 134.10 20.50Q134.25 16.90 134.55 16.75Q134.80 16.65 135.45 17.35Q136.10 18.05 136.18 20.97Q136.25 23.90 136.40 24.05Q136.75 24.40 138.72 23Q140.70 21.60 141.20 20.65Q141.55 20 141.85 17.40Q142 15.75 141.93 15.07Q141.85 14.40 141.45 13.70Q140.85 12.80 140.80 11.88Q140.75 10.95 141.20 10.70M156.50 4.40Q156.55 4.15 157.85 4.50Q159.15 4.85 159.30 5.15Q159.75 5.90 158.70 8.95Q158.10 10.55 158.22 10.95Q158.35 11.35 159.35 11.70Q161.25 12.40 161.55 13.20Q161.85 14 160.70 15.75L158.80 18.55L157.30 20.75Q156.80 21.50 156.95 21.70Q157.10 21.80 157.53 21.65Q157.95 21.50 159.50 20.65Q160.30 20.20 161.57 20.13Q162.85 20.05 163.90 20.35Q165.25 20.65 164.70 23.30Q164.15 25.95 162.35 27.80L161.05 29.20L161 32.70Q161 37.45 160.47 40.52Q159.95 43.60 159.15 43.90Q158.60 44.05 157.57 43.60Q156.55 43.15 155.70 42.35Q154.80 41.60 153.30 41.10Q151.80 40.60 150.70 40.85Q149.80 40.95 149.35 40.63Q148.90 40.30 148.50 39.15Q148.15 38.10 148.28 36.77Q148.40 35.45 148.85 35.30Q149.20 35.15 150 35.80Q150.75 36.50 151.10 36.48Q151.45 36.45 152.30 35.75Q155.25 33.45 155.85 33.45Q156.20 33.45 156.70 32.55Q157.40 31.55 157.10 30.10Q156.80 28.65 155.75 27.95Q154.80 27.40 154.07 27.68Q153.35 27.95 150.85 29.80Q148.85 31.35 147.90 31.35Q147.35 31.35 147.15 31.13Q146.95 30.90 146.85 30.10Q146.65 29.25 146.80 28.88Q146.95 28.50 147.75 27.80Q149.65 26.15 153.90 19.85Q156.50 16 155.85 16Q155.65 16 154.90 16.55Q154.10 17.10 153.60 16.65Q152.30 15.55 154.70 10.60Q156.30 7.40 156.38 5.95Q156.45 4.50 156.50 4.40M161.30 23.65Q161.30 23.45 161.25 23.32Q161.20 23.20 161 23.22Q160.80 23.25 160.47 23.38Q160.15 23.50 159.60 23.85Q157.65 24.85 159 25.65Q159.40 25.95 159.68 25.85Q159.95 25.75 160.45 25.10Q161.30 24.20 161.30 23.65M156.60 37.05Q157 35.05 156.60 35.05Q156.45 35.05 156.10 35.30Q155.45 35.80 154.65 37.35Q153.85 38.90 154.18 39.10Q154.50 39.30 155.40 38.85Q156.30 38.40 156.60 37.05ZM195.70 32.20Q195.70 31.90 195.95 31.90Q197.65 31.90 198.80 33.92Q199.95 35.95 199.95 37.13Q199.95 38.30 199.72 39.35Q199.50 40.40 198.18 43.67Q196.85 46.95 196.13 46.95Q195.40 46.95 195 45.27Q194.60 43.60 194.60 41.92Q194.60 40.25 194.93 38.63Q195.25 37 195.45 36Q195.90 34.20 195.90 33.55L195.70 32.20ZM246.95 9.95Q248.55 10.15 248.95 10.38Q249.35 10.60 249.35 11.30Q249.35 11.80 248.88 12.20Q248.40 12.60 246.70 13.35Q245.10 14.10 243 15.47Q240.90 16.85 240.15 17.60Q240 17.80 238.65 18.75Q237.10 19.90 237.60 19.90Q237.90 19.95 238.65 19.55Q239.65 19.05 241 18.45Q242.35 17.85 246.10 16.05Q248.85 14.70 249.50 14.52Q250.15 14.35 251 14.75Q252.50 15.30 252.60 15.70Q252.70 16.10 251.60 17.15Q250.20 18.45 249 19.80Q247.80 21.15 246.50 22.20Q244.45 23.70 244.25 24.20Q244.05 24.70 244.70 26.20Q245.20 27.40 245.53 27.65Q245.85 27.90 246.70 27.90Q248.05 27.90 249.30 27.35Q250.55 26.80 252.30 27.05L254.05 27.25L254.30 26Q254.65 23.75 253.70 23.75Q253.30 23.75 250.85 24.80Q248.15 25.90 247.13 26.05Q246.10 26.20 245.65 25.50Q245.40 24.95 245.43 24.72Q245.45 24.50 245.80 24.05Q246.40 23.40 246.78 23.40Q247.15 23.40 250.15 22.15Q252.40 21.30 253.05 21.17Q253.70 21.05 255.05 21.35Q256.95 21.80 257.52 22.55Q258.10 23.30 258.20 25.45Q258.30 27.50 257.90 34.95Q257.50 42.40 257.25 43.20Q257 43.85 255.90 44.58Q254.80 45.30 254.15 45.30Q253.60 45.30 252.40 43.60Q252 42.95 251.78 42.65Q251.55 42.35 251.07 42.15Q250.60 41.95 250.30 41.95Q250 41.95 249.10 42.17Q248.20 42.40 247.43 42.67Q246.65 42.95 245 43.65Q244.25 43.95 243.93 43.90Q243.60 43.85 242.85 43.15Q241.95 42.20 241.85 40.85Q241.75 39.50 242.30 34Q242.75 29.40 242.55 27.40L242.35 25.35L240.65 26.85Q238.95 28.30 237.30 30.25L234 34.05Q232.35 35.90 230.95 37.60Q230 38.95 228.75 40.10Q227.50 41.25 227.10 41.25Q226.85 41.25 226.45 40.80Q225.95 40.15 226.75 38.50Q227.55 36.85 229.35 35.10Q232.90 31.35 236.50 27.32Q240.10 23.30 239.90 23.05Q239.75 22.80 238.65 23.25Q231.70 26.30 230.85 25.95Q230.40 25.85 230.30 25.47Q230.20 25.10 230.25 23.90L230.40 22L232.70 20.75Q234.90 19.60 236.65 18.20L239.50 15.85L240.75 14.90L239.90 13.25Q239.30 11.90 239.35 11.50Q239.40 11.10 240.20 11.10Q240.95 11.10 243.20 10.45Q245.45 9.80 246.95 9.95M254.05 31.20Q254.20 29.90 253.93 29.65Q253.65 29.40 252.80 29.90Q252.30 30.20 250.78 30.42Q249.25 30.65 248.60 31.02Q247.95 31.40 247.55 31Q247.15 30.60 246.25 30.60Q245.75 30.60 245.47 30.80Q245.20 31 245.10 31.50Q244.85 32.50 245.32 32.90Q245.80 33.30 246.95 33.15Q248.15 32.90 251.10 32.85L254 32.85L254.05 31.20M253.85 36.75Q253.85 35.85 253.30 35.75Q252.75 35.65 251.55 36.40Q250.45 37.05 250.43 37.58Q250.40 38.10 251.35 38.20Q253.85 38.55 253.85 36.75M245.80 38Q246 37.85 245.88 37.42Q245.75 37 245.45 37.45Q245.15 37.90 245.50 38.15Q245.60 38.20 245.80 38M245.25 3.10Q245.90 2.85 247.88 3.07Q249.85 3.30 250.10 3.65Q250.50 4.25 249.95 4.63Q249.40 5 246.95 5.90Q244.95 6.65 243.93 6.80Q242.90 6.95 241.55 6.85Q240 6.80 239.38 6.45Q238.75 6.10 238.75 5.40Q238.75 5 240.28 4.80Q241.80 4.60 243.30 4L245.25 3.10ZM283 33.90Q283.10 30 283.60 30Q283.90 30 284.40 30.55Q284.95 31.20 285.20 34.20Q285.45 36.75 285.82 37.42Q286.20 38.10 287.70 38.50Q288.90 38.85 292.80 38.85Q296.70 38.85 298.30 38.50Q299.60 38.30 301.57 37.10Q303.55 35.90 305.50 34.35Q306.65 33.45 306.90 33.67Q307.15 33.90 306.50 35.25Q305.10 37.95 302.63 39.85Q300.15 41.75 297.45 42.05Q291.15 42.90 288.85 42.30Q285.70 41.55 285.10 41.20Q284.50 40.85 283.80 39.55Q283.20 38.40 283.07 37.52Q282.95 36.65 283 33.90M295.15 13.50Q294.80 13.90 293.82 15.77Q292.85 17.65 292.85 17.85Q292.85 18 293.40 18Q293.95 18 294.85 19.05Q295.55 19.80 295.90 19.90Q296.25 20 297.15 19.75Q298.50 19.35 299.25 19.90Q299.90 20.35 300 20.85Q300.10 21.35 299.60 21.65Q299.05 21.95 297.80 24.27Q296.55 26.60 296.75 26.80Q297 27 297.30 26.55Q297.55 26.10 299.35 26.27Q301.15 26.45 301.50 26.95Q301.90 27.60 301.63 28.23Q301.35 28.85 300.50 29.15Q299.45 29.50 297.52 30.92Q295.60 32.35 294.35 32.95L291.25 34.30Q287.05 36.20 287.05 33.35Q287.05 32.80 287.30 32.15Q287.55 31.50 287.90 31.10Q288.25 30.70 288.40 30.85Q288.70 31.05 288.95 30.65Q289.25 30.15 288.68 29.32Q288.10 28.50 287.15 27.95Q286.10 27.35 286 26.65Q285.90 25.95 286.75 25.70Q287.55 25.40 289.55 23.90Q291.55 22.40 292.05 22.20Q292.55 22 292.45 21.10Q292.40 20.55 292.18 20.38Q291.95 20.20 291.30 20.30Q290.25 20.35 289.45 20.55Q288.95 20.75 288.85 20.65Q288.75 20.55 288.95 20Q289.15 19.20 290.95 17.32Q292.75 15.45 294.07 13.75Q295.40 12.05 295.52 12.47Q295.65 12.90 295.15 13.50M292.30 26.30Q292.45 25.35 292.13 25.20Q291.80 25.05 290.90 25.70Q290.05 26.30 290.02 26.93Q290 27.55 290.77 27.75Q291.55 27.95 291.82 27.68Q292.10 27.40 292.30 26.30M289.80 9.45Q295.10 6.70 295.55 6.85Q296.75 7 295.65 8.25Q294.85 9.25 293.35 9.95Q292.45 10.40 290.10 12.85Q287.75 15.30 287.75 15.80Q287.75 16.25 287.35 16.70Q286.10 18 284.95 20.15Q284.45 21.20 283.10 22.75Q282 24 281.40 24.97Q280.80 25.95 279.85 27.95Q279.15 29.50 278.82 30Q278.50 30.50 275.70 36.10Q272.05 43.70 269.15 46.40Q267.55 47.80 267.55 45.40Q267.55 44.55 268.05 43.58Q268.55 42.60 270.10 40.25Q272.65 36.45 272.65 36.33Q272.65 36.20 274.15 33.70L276.65 29.30Q278.75 25.50 281.82 20.77Q284.90 16.05 286.10 14.75Q287.45 13.25 286.85 13.25Q286.35 13.20 284.10 14.20Q281.75 15.20 279.70 15.30Q277.80 15.40 277.75 15.05Q277.65 14.75 278.70 14.55Q280.70 14.15 289.80 9.45M284.35 1.55Q284.75 1.30 285.75 1.42Q286.75 1.55 287.20 1.90Q287.55 2.15 288.85 2.55Q290.65 3.15 291.25 4.70Q291.85 6.25 290.60 7.40Q289.80 8.15 289.57 7.95Q289.35 7.75 288.35 8.25Q287.55 8.65 286.80 8.75Q286.05 8.85 285.90 8.50Q285.70 8.20 286.70 7.05Q287.60 5.95 287.65 5.47Q287.70 5 286.80 4.40Q285.95 3.80 284.90 2.80Q284.30 2.25 284.18 1.97Q284.05 1.70 284.35 1.55ZM342.85 11.45Q343 11 343.27 10.92Q343.55 10.85 344.60 11Q346.15 11.30 347.95 11.52Q349.75 11.75 350.30 12.30Q350.70 12.65 350.68 12.85Q350.65 13.05 350.10 13.50Q349.35 14.15 347.05 14.30Q345.15 14.50 342.10 15.50Q339.05 16.50 337.25 17.60Q333.05 20 330.60 24.95Q328.25 29.80 330.30 28.45Q330.40 28.35 330.50 28.30Q331.35 27.65 332.77 27.57Q334.20 27.50 335 28Q335.50 28.35 335.82 28.17Q336.15 28 337.05 26.95Q338 25.90 338.38 25.72Q338.75 25.55 339.70 25.70Q341.70 26.10 342.10 25.85Q342.50 25.60 343.20 23.70Q344.10 21.30 344.50 21.05Q344.95 20.70 346.27 20.80Q347.60 20.90 348.35 21.30Q349.25 21.75 349.57 22.42Q349.90 23.10 350.02 25.30Q350.15 27.50 350 31.55Q349.90 36.80 349.75 38.50Q349.60 40.20 349.15 41.65Q348.35 44 347.88 44.73Q347.40 45.45 346.50 45.95Q345.40 46.50 345.18 46.35Q344.95 46.20 345.40 45.20Q346.45 43.15 346.40 31.40Q346.30 23.70 345.80 22.95Q345.40 22.25 345.02 22.17Q344.65 22.10 344.50 22.60L342 31.05Q341.30 33.60 340.48 35.58Q339.65 37.55 339.30 37.55Q338.80 37.55 338.45 36.63Q338.10 35.70 338.95 33.55Q339.80 31.40 339.80 29.40Q339.80 27.80 339.35 26.85Q338.90 25.90 338.25 26.10Q337.50 26.40 336.73 29.15Q335.95 31.90 335.40 36.30Q335.05 39 334.13 39.73Q333.20 40.45 330.10 40.55L326.85 40.70L325.70 39.60Q324.70 38.70 324.15 37.35Q323.60 36 323.85 35.10Q324.65 31.55 326.20 27.55Q326.95 25.65 327.60 24.67Q328.25 23.70 330.35 21.55Q333.15 18.70 332.85 18.45Q332.80 18.35 332.60 18.35Q331.90 18.35 328.38 20.65Q324.85 22.95 323.10 24.55Q321.40 26.05 320.20 26.50Q319 26.95 317.30 26.75Q315.40 26.50 314.65 26.25Q313.60 25.80 313.90 25.40Q314 25.25 314.40 25.25Q315 25.25 318.45 23.60Q326.30 19.75 326.70 19.75Q326.90 19.75 327.80 19.10Q328.85 18.35 333.10 16.25Q337.35 14.15 339.80 13.25Q342.70 12.10 342.85 11.45M332.65 31.40Q332.65 30.40 332.20 30.40Q331.75 30.40 330.75 31.35Q328.95 32.90 328.10 35.70Q327.50 37.55 328.25 37.55Q328.65 37.55 330.35 35.75Q332.05 33.95 332.35 33.20Q332.65 32.40 332.65 31.40M330.40 5.40Q331.95 3.75 331.95 4.50Q331.95 4.65 331.23 5.90Q330.50 7.15 330.70 9Q330.85 10.20 330.77 10.60Q330.70 11 330.20 11.20Q329.40 11.60 328.77 11.23Q328.15 10.85 327.25 9.50Q326 7.65 326.25 7.50Q326.35 7.40 326.85 7.40Q328.50 7.40 330.40 5.40M337.30 2.25Q337.90 1.55 340.18 2.32Q342.45 3.10 342.75 4.10Q343.45 6.25 340.90 8.70Q339.30 10.25 338.45 10.65Q337.90 10.95 337.18 11.17Q336.45 11.40 335.95 11.42Q335.45 11.45 335.40 11.35Q335.40 11.05 336.95 8.75Q338.50 6.45 338.90 5.35Q339.15 4.55 339.02 4.25Q338.90 3.95 338.15 3.35Q337.05 2.50 337.30 2.25ZM376.30 17.60Q377.15 18.15 374.70 22.70Q373.10 25.60 372.18 27.38Q371.25 29.15 370.68 30.30Q370.10 31.45 369.98 31.90Q369.85 32.35 370 32.40Q370.65 32.60 371.40 33.33Q372.15 34.05 372.15 34.50Q372.15 36.30 374.45 32.80Q375.85 30.55 376.30 30.05Q377 29.10 377.35 28.20Q377.70 27.30 377.95 25.40Q378.35 22.40 378.55 21.80Q378.75 21.20 379.50 21Q380.50 20.80 381.75 21.22Q383 21.65 383.35 22.40Q383.55 22.90 383.90 23.05Q384.25 23.20 385 23.20Q386.50 23.20 387.15 24Q387.80 24.80 387.80 26.55Q387.80 30 384.80 32.90Q383.40 34.25 382.95 35.48Q382.50 36.70 383.05 37.40Q383.55 38.05 385.27 37.92Q387 37.80 389.05 37.05Q391.15 36.20 392.13 36.40Q393.10 36.60 393.25 37.80Q393.35 38.45 393.02 38.95Q392.70 39.45 391.55 40.55Q389.15 42.80 386.45 43.25Q383.75 43.70 381.60 42.15Q380.25 41.20 379.60 40Q378.90 38.60 378.25 36.33Q377.60 34.05 377.60 33.05Q377.60 32.35 377.48 32.05Q377.35 31.75 377.20 31.80Q376.80 32 375.68 34.17Q374.55 36.35 374.10 37.95Q373.60 39.40 372.13 41.75Q370.65 44.10 370.15 44.10Q369.60 44.10 368.15 42.35Q367 40.90 367.80 39.35Q368.35 38.30 368.35 37.20Q368.35 36.55 368.23 36.42Q368.10 36.30 367.65 36.60Q367 36.95 365.90 38.13Q364.80 39.30 363.90 40.60Q362.75 42.35 362.10 42.40Q361.95 42.40 361.55 40.90Q361.20 39.80 361.32 39.45Q361.45 39.10 362.35 38.15Q363.60 36.80 364.35 35.75Q368.40 29.65 369.25 28.20L370.55 25.80Q371.15 24.75 371.57 23.75Q372 22.75 372.15 22.17Q372.30 21.60 372.15 21.55Q371.80 21.55 370.15 22.85L367.05 25.45Q365.70 26.65 364.30 26.65Q362.45 26.65 361.95 25.70Q361.60 25 362.75 24.70Q363.95 24.40 366.32 22.70Q368.70 21 369.25 19.95Q369.60 19.40 371.60 18.25Q373.60 17.10 374.82 17.27Q376.05 17.45 376.30 17.60M375.50 5.35Q377.65 4.30 378.27 4.17Q378.90 4.05 379.70 4.45Q382.55 5.90 381.88 7.88Q381.20 9.85 377.05 12.60Q374.75 14.15 373.75 15.10Q372.60 16.10 372.60 15.95Q372.65 15.80 373.55 14.55Q374.60 13.25 375.82 11.32Q377.05 9.40 377.45 8.40Q378 7.25 377.88 6.85Q377.75 6.45 376.90 6.45Q374.35 6.45 372.35 8.95Q371.10 10.45 369.40 13.55Q368.70 14.90 367.88 14.55Q367.05 14.20 366.80 12.40Q366.55 11.05 366.75 10.20Q366.95 9.35 367.70 8.45Q368.15 7.95 368.32 7.90Q368.50 7.85 368.75 8.25Q369.10 8.90 369.55 8.80Q370 8.70 371.30 7.75Q372.95 6.65 375.50 5.35ZM424.25 5.55Q424.85 4.95 428.10 6.70Q429.15 7.20 428.60 8.52Q428.05 9.85 425.90 12.25Q424 14.25 424.23 14.63Q424.45 15 425.60 15.50Q426.35 15.80 426.57 16.10Q426.80 16.40 426.80 17.20L426.80 18.45L428.90 18.20Q431.05 17.95 432.18 17.63Q433.30 17.30 435.10 17.85Q436.70 18.35 437.25 18.82Q437.80 19.30 437.60 20Q437.10 21.40 432.70 21.40Q430.90 21.40 429.18 21.88Q427.45 22.35 427.10 22.90Q426.80 23.30 426.95 24.50Q427.25 27 426.90 35.45Q426.75 39.80 426.60 40.90Q426.45 42 426 42.40Q424.95 43.30 424.65 42.30Q424.55 41.70 424.50 40.05L424.25 30.65Q424.15 23.95 423.90 23.60Q423.65 23.15 422.25 23.57Q420.85 24 420.45 24.65Q420 25.40 418.90 28.80Q417.50 33.30 416.52 34.63Q415.55 35.95 413.40 36.30Q411.85 36.55 411.25 35.90Q410.85 35.50 410.90 35.23Q410.95 34.95 411.50 34.10Q412.20 33.05 412.35 33.50Q412.60 34.80 413.85 33.05Q415.20 31.15 415.85 28.55Q416.45 26.05 416.23 25.80Q416 25.55 412.80 27.10Q409.60 28.65 409.05 28.55Q408.70 28.50 407.80 27.38Q406.90 26.25 406.90 25.85Q406.90 25.60 408.70 24.75Q410.40 23.90 412.30 22.17Q414.20 20.45 414.23 19.70Q414.25 18.95 415.13 18.85Q416 18.75 418.15 16.40Q420.20 14.25 422.18 11.67Q424.15 9.10 423.90 8.90Q423.75 8.65 422.10 9.70Q418.30 12.10 416.02 12.67Q413.75 13.25 412.40 12.20Q411.55 11.55 411.75 11.40Q412.10 11.05 415.30 9.52Q418.50 8 420.70 7.10Q424.10 5.80 424.25 5.55M418.70 20.25Q419.20 20.60 419.68 20.55Q420.15 20.50 421.55 20.05L423.70 19.30L423.70 17.85Q423.70 16.40 423.30 16Q422.90 15.60 422.73 15.60Q422.55 15.60 420.23 17.52Q417.90 19.45 417.90 19.60Q417.90 19.75 418.70 20.25M415.70 21.65Q415.60 21.20 415.20 21.20Q414.80 21.20 414.45 21.60Q414.05 22.10 414.15 22.30Q414.30 22.40 414.68 22.30Q415.05 22.20 415.40 22Q415.75 21.80 415.70 21.65ZM466.30 17.60Q467.15 18.15 464.70 22.70Q463.10 25.60 462.18 27.38Q461.25 29.15 460.68 30.30Q460.10 31.45 459.98 31.90Q459.85 32.35 460 32.40Q460.65 32.60 461.40 33.33Q462.15 34.05 462.15 34.50Q462.15 36.30 464.45 32.80Q465.85 30.55 466.30 30.05Q467 29.10 467.35 28.20Q467.70 27.30 467.95 25.40Q468.35 22.40 468.55 21.80Q468.75 21.20 469.50 21Q470.50 20.80 471.75 21.22Q473 21.65 473.35 22.40Q473.55 22.90 473.90 23.05Q474.25 23.20 475 23.20Q476.50 23.20 477.15 24Q477.80 24.80 477.80 26.55Q477.80 30 474.80 32.90Q473.40 34.25 472.95 35.48Q472.50 36.70 473.05 37.40Q473.55 38.05 475.27 37.92Q477 37.80 479.05 37.05Q481.15 36.20 482.13 36.40Q483.10 36.60 483.25 37.80Q483.35 38.45 483.02 38.95Q482.70 39.45 481.55 40.55Q479.15 42.80 476.45 43.25Q473.75 43.70 471.60 42.15Q470.25 41.20 469.60 40Q468.90 38.60 468.25 36.33Q467.60 34.05 467.60 33.05Q467.60 32.35 467.48 32.05Q467.35 31.75 467.20 31.80Q466.80 32 465.68 34.17Q464.55 36.35 464.10 37.95Q463.60 39.40 462.13 41.75Q460.65 44.10 460.15 44.10Q459.60 44.10 458.15 42.35Q457 40.90 457.80 39.35Q458.35 38.30 458.35 37.20Q458.35 36.55 458.23 36.42Q458.10 36.30 457.65 36.60Q457 36.95 455.90 38.13Q454.80 39.30 453.90 40.60Q452.75 42.35 452.10 42.40Q451.95 42.40 451.55 40.90Q451.20 39.80 451.32 39.45Q451.45 39.10 452.35 38.15Q453.60 36.80 454.35 35.75Q458.40 29.65 459.25 28.20L460.55 25.80Q461.15 24.75 461.57 23.75Q462 22.75 462.15 22.17Q462.30 21.60 462.15 21.55Q461.80 21.55 460.15 22.85L457.05 25.45Q455.70 26.65 454.30 26.65Q452.45 26.65 451.95 25.70Q451.60 25 452.75 24.70Q453.95 24.40 456.32 22.70Q458.70 21 459.25 19.95Q459.60 19.40 461.60 18.25Q463.60 17.10 464.82 17.27Q466.05 17.45 466.30 17.60M465.50 5.35Q467.65 4.30 468.27 4.17Q468.90 4.05 469.70 4.45Q472.55 5.90 471.88 7.88Q471.20 9.85 467.05 12.60Q464.75 14.15 463.75 15.10Q462.60 16.10 462.60 15.95Q462.65 15.80 463.55 14.55Q464.60 13.25 465.82 11.32Q467.05 9.40 467.45 8.40Q468 7.25 467.88 6.85Q467.75 6.45 466.90 6.45Q464.35 6.45 462.35 8.95Q461.10 10.45 459.40 13.55Q458.70 14.90 457.88 14.55Q457.05 14.20 456.80 12.40Q456.55 11.05 456.75 10.20Q456.95 9.35 457.70 8.45Q458.15 7.95 458.32 7.90Q458.50 7.85 458.75 8.25Q459.10 8.90 459.55 8.80Q460 8.70 461.30 7.75Q462.95 6.65 465.50 5.35ZM516.15 11Q516.85 11 518.88 11.85Q520.90 12.70 520.90 12.95Q520.90 13.45 518.85 14.45Q516.95 15.40 515.65 16.52Q514.35 17.65 513.25 19.35Q512.05 21.15 511.25 21.60Q510.55 21.95 509.23 23.63Q507.90 25.30 507.50 26.25Q507.25 27.10 507.07 28.20Q506.90 29.30 506.65 30.30Q506.45 31.25 506.75 31.15Q507.15 31.05 508.20 29.25Q511.10 24.20 512.75 22.15Q514.40 20.10 516.55 19.05Q518.10 18.25 519.83 18.20Q521.55 18.15 522.30 18.90Q523.80 20.40 523 23.95Q522.65 25.35 522.73 25.70Q522.80 26.05 523.45 26.55L524.35 27.30L523.35 29.15Q522.30 31.05 522.30 31.63Q522.30 32.20 520.75 34.50Q519.20 36.80 519.35 36.92Q519.50 37.05 520.45 36.55Q521.65 35.90 523.65 36.38Q525.65 36.85 526.85 38Q528.10 39.20 528.05 39.95Q528 40.70 526.50 41.55Q525 42.55 524.70 42.55Q524.40 42.55 523.98 43.02Q523.55 43.50 521.75 44.02Q519.95 44.55 518.88 45.42Q517.80 46.30 517.80 46.05Q517.80 45.70 518.52 44.73Q519.25 43.75 519.80 43.35Q520.55 42.80 520.55 42.48Q520.55 42.15 521.30 41.13Q522.05 40.10 521.83 39.88Q521.60 39.65 519 40.75Q516.65 41.85 515.70 41.67Q514.75 41.50 514 39.95L513.25 38.45L515.05 36.50Q516.80 34.50 516.80 34.17Q516.80 33.85 515.77 34.05Q514.75 34.25 513.52 33.73Q512.30 33.20 512 33.45Q511.65 33.60 511.50 32.95Q511.30 32.20 511.65 31.60Q511.95 31.05 514.55 29.35Q516.20 28.35 516.90 27.65Q517.60 26.95 518.40 25.55Q519.60 23.40 519.75 21.65Q519.95 20.05 519.65 20.05Q519.55 20.05 519.30 20.15Q518.65 20.35 518.25 20.65Q517.85 20.95 517.60 20.90Q517.30 20.80 516.05 21.40Q514.80 22 514.20 22.60Q513.60 23.10 512.58 24.60Q511.55 26.10 511.10 27.10L508.95 31.90Q507.15 35.80 506.73 36.50Q506.30 37.20 505.88 38.58Q505.45 39.95 504.63 41.65Q503.80 43.35 503.80 43.90Q503.80 44.35 503.30 44.98Q502.80 45.60 502.40 45.60Q502.05 45.60 501.05 44.48Q500.05 43.35 500.05 42.95Q500.05 42.55 501.07 39.35Q502.10 36.15 504 29.70Q505.90 23.25 506.75 21.77Q507.60 20.30 507.60 20.10Q507.60 20 506.93 20.45Q506.25 20.90 505.48 21.47Q504.70 22.05 504.45 22.30Q504.30 22.45 502.80 23.80Q499.80 26.25 497.35 24.20Q495.50 22.65 497.45 22.65Q498.50 22.65 502.75 19.95Q504.30 18.90 505.32 18.32Q506.35 17.75 508.13 16.47Q509.90 15.20 512.13 13.80Q514.35 12.40 515.08 11.70Q515.80 11 516.15 11M513.85 2.45Q516.20 1.95 518.55 2.65Q520.90 3.35 520.90 4.50Q520.90 6.75 517.60 8.25Q515.30 9.35 514.25 9.85Q513.15 10.40 513.15 10.10Q513.15 9.75 514.15 8.55Q515.35 7.05 516.10 5.60L516.80 4.20L516.10 3.85Q515.45 3.50 514.33 3.70Q513.20 3.90 512.45 4.50Q511.55 5.20 509.90 7.30Q508.25 9.40 508.25 9.80Q508.25 10.35 507.25 10.38Q506.25 10.40 505.80 9.85Q505.30 9.40 504.80 7.95Q504.55 7.05 504.55 6.50Q504.55 5.95 504.85 5Q505.15 3.95 505.45 3.57Q505.75 3.20 506.05 3.38Q506.35 3.55 506.65 4.30Q507.15 5.55 507.48 5.55Q507.80 5.55 510.10 4.15Q512.40 2.75 513.85 2.45Z"/></g><g transform="translate(0, 56)"><path d="M20.85 6.30L22.30 7.15Q23.50 7.90 23.88 8.92Q24.25 9.95 24.05 11.90Q23.85 13.05 23.98 13.30Q24.10 13.55 24.75 13.75Q25.65 13.95 27.40 13.55Q29.15 13.15 30.05 12.50Q30.65 12.05 31.02 12Q31.40 11.95 32.15 12.20Q33.30 12.60 33.63 12.88Q33.95 13.15 34.65 13.15Q35.40 13.20 35.90 13.67Q36.40 14.15 36.45 14.95Q36.50 15.50 36.40 15.72Q36.30 15.95 35.90 16Q32.10 16.20 27.30 16.75Q22.75 17.30 21.85 18.65Q20.60 20.40 20.95 21.20Q21.05 21.40 21.20 21.40Q21.75 21.40 23.85 22.50Q25.65 23.35 26.10 24.17Q26.55 25 25.90 26.15Q25.30 27 24.38 28.70Q23.45 30.40 21.95 31.85Q21.10 32.65 20.85 33.08Q20.60 33.50 20.80 33.75Q21 34 21.75 34.15Q22.70 34.40 23.80 35.40Q24.85 36.35 25.30 36.40Q25.75 36.45 26.85 35.80Q29.05 34.50 27.60 32.05Q26.80 30.65 27.15 30.40Q27.50 30.15 29.15 31Q30.90 31.95 31.55 32.67Q32.20 33.40 32.35 34.65Q32.50 35.90 31.80 37.15Q31.10 38.40 30 38.85Q29.40 39.15 28.95 39.13Q28.50 39.10 27.70 38.70Q26.85 38.30 26.15 38.27Q25.45 38.25 23.70 38.50Q17.50 39.45 14.40 40.95Q12.25 41.95 11.55 41.85Q9.65 41.55 9.30 37.70L9.10 35.40L9.95 35.40Q10.85 35.40 11.05 35.10Q11.25 34.80 12.25 34.95Q12.95 35.15 13.38 34.90Q13.80 34.65 14.70 33.70Q16.35 31.95 18.57 29.17Q20.80 26.40 20.80 26Q20.80 25.45 19.55 26.10Q19.15 26.30 18.85 26.50Q17.95 27.20 17.55 26.85Q17.10 26.50 16.73 24.67Q16.35 22.85 16.50 21.85Q16.55 21.55 16.57 21.30Q16.60 21.05 16.60 20.88Q16.60 20.70 16.52 20.70Q16.45 20.70 14.88 21.52Q13.30 22.35 12.60 22.85Q11.75 23.40 10.88 23.63Q10 23.85 8.85 24.80Q7.05 26.15 6.35 26.25Q5.65 26.35 3.45 25.45Q0.80 24.45 0.50 24.20Q0 23.90 1 23.50Q1.25 23.40 1.65 23.35Q2.55 23.15 4.08 22.47Q5.60 21.80 6.80 21.40Q8 21 9.05 20.55L11.20 19.55Q16.60 17.30 17.85 16.63Q19.10 15.95 19.55 14.85Q20.60 12.50 20.90 11.13Q21.20 9.75 21.05 8.30L20.85 6.30ZM67 18.35Q68.90 18 71.25 18.42Q73.60 18.85 75.55 19.95Q76.65 20.60 77.03 21.02Q77.40 21.45 77.75 22.50Q78.60 25.30 77 27.50L72.10 34Q71.20 35.20 69.20 36.65Q67.85 37.60 67.22 37.85Q66.60 38.10 65.55 38.10Q63.95 38.10 60.15 39.35Q53 41.55 52.35 41.55Q51.75 41.55 51.40 40.83Q51.05 40.10 51.10 38.80Q51.20 37.30 50.15 34.40Q49.70 33.20 49.33 31.40Q48.95 29.60 48.80 28.48Q48.65 27.35 48.90 27.20Q49.05 27.20 51.05 29.10Q52.80 30.70 53.60 30.80Q54.40 30.90 56.75 29.65Q58.20 29 58.58 28.60Q58.95 28.20 58.95 27.35Q58.95 26.35 58.55 26.18Q58.15 26 56.95 26.50Q53.65 28 52.05 26.30Q51.20 25.35 50.95 24.60Q50.80 24.15 51.02 23.97Q51.25 23.80 52.15 23.70Q53 23.50 53.63 23.13Q54.25 22.75 55.10 21.85Q56.60 20.30 56.60 20.85Q56.60 21.40 56.25 21.60Q55.90 21.80 55.90 22.13Q55.90 22.45 57.50 21.70Q59.60 20.75 62.77 19.63Q65.95 18.50 67 18.35M71.80 22.35Q70.95 21.15 66.92 21.70Q62.90 22.25 60.65 23.90L59.80 24.50L60.55 25.15Q61.30 25.70 61.65 26.43Q62 27.15 63.90 27.35Q65.95 27.60 66.72 27.97Q67.50 28.35 67.50 29.10Q67.50 29.85 67 30.27Q66.50 30.70 65.55 30.65Q62.90 30.40 62.15 30.95Q61.80 31.15 61.60 32.95L61.30 34.75L63.20 34.75Q64.75 34.75 65.45 34.30Q66.15 33.85 67.90 31.70Q70.45 28.60 71 26.75L71.75 24.50Q72.25 22.90 71.80 22.35M58.15 34.40Q58.60 33.40 58.20 33.45Q55.25 33.80 55.25 34.40Q55.25 34.60 55.55 34.90Q56.05 35.60 56.88 35.45Q57.70 35.30 58.15 34.40M64.30 6.85Q65.10 6.55 66.08 6.75Q67.05 6.95 67.55 7.60Q67.90 8.05 68.50 8.05Q69.10 8.05 70.03 8.92Q70.95 9.80 70.95 10.35Q70.95 10.95 69.30 12.50Q68.15 13.55 66.38 14.67Q64.60 15.80 60.65 17.90Q58.45 19.10 57.85 19.60Q57 20.35 57.05 19.85Q57.05 19.40 57.80 18.50Q59.75 16.20 61.60 13.65Q63.20 11.35 63.75 10.45Q64.60 9.50 64.28 9.27Q63.95 9.05 62.05 9.15Q58.95 9.35 56.40 10.95Q53.85 12.55 52.80 14.85Q52.25 16.05 51.77 16.22Q51.30 16.40 50.55 15.55Q49.85 14.80 49.25 13.13Q48.65 11.45 48.80 10.95Q48.95 10.50 49.10 10.50Q49.25 10.50 49.70 10.95Q50.25 11.45 51.63 11.15Q53 10.85 58.10 9.05L64.30 6.85ZM97.75 22Q98.15 21.25 98.50 21.25Q99 21.25 98.50 21.75Q98.35 21.85 98.10 22.10Q97.55 22.55 97.50 22.55Q97.45 22.55 97.75 22M105.15 7.85Q106.30 6.95 106.65 6.90Q107 6.85 108.15 7.40Q109.35 7.90 110.08 8.57Q110.80 9.25 110.80 9.95Q110.80 10.60 109.60 12.15Q108.40 13.70 107.95 13.70Q107.55 13.70 106.10 15.05Q104.65 16.40 104.65 16.85Q104.65 17.25 105.75 18.05Q106.75 18.70 107.83 18.63Q108.90 18.55 109.60 17.80Q110.20 17.15 110.68 17.35Q111.15 17.55 112 17.10Q112.55 16.80 112.95 16.90Q113.35 17 114.30 17.55Q115.25 18.15 115.53 18.52Q115.80 18.90 115.85 19.50Q115.85 20.55 115.38 20.55Q114.90 20.55 112.43 21.70Q109.95 22.85 109.43 23.02Q108.90 23.20 108.40 24.10Q108.10 24.75 108.10 25.18Q108.10 25.60 108.50 26.80Q108.95 28.15 108.95 28.73Q108.95 29.30 108.60 30.90Q108.10 32.90 108.08 34.55Q108.05 36.20 108.50 36.60Q108.95 37 112.48 36.98Q116 36.95 116.95 36.55L118.50 35.90Q119.20 35.60 119.90 35.45Q120.75 35.20 121.45 33Q122.15 30.80 122.15 28.40Q122.10 27.40 122.85 27.85Q123.45 28.25 124.05 29.35Q124.80 30.85 125.20 31.32Q125.60 31.80 125.40 33.10Q125.20 34.40 125 35.95Q124.65 38.85 122.70 39.40Q121.90 39.65 120.38 40.05Q118.85 40.45 117.80 40.75Q116.45 41.15 113.35 41.23Q110.25 41.30 108.85 40.95Q107.70 40.65 107.18 40.27Q106.65 39.90 105.85 38.70L104.65 36.95L104.95 33.95Q105.25 30.95 105.10 30.85Q105 30.70 104.75 31.02Q104.50 31.35 104.23 31.77Q103.95 32.20 103.95 32.45Q103.95 33.40 102.20 36.35Q101.65 37.20 100.20 38.45Q98.75 39.70 98.25 39.70Q98.05 39.70 96.90 40.58Q95.75 41.45 95.10 41.35Q94.60 41.25 94.95 40.85Q95.10 40.65 95.40 40.40Q96.25 39.60 96.95 38.45Q99.15 34.85 99.98 33.27Q100.80 31.70 101.55 29.70Q102.70 26.70 102.45 26.45Q102.25 26.25 101.08 27.02Q99.90 27.80 98.35 29.25Q96.85 30.65 95.43 31.35Q94 32.05 93.20 31.70Q92.70 31.55 92.13 30.42Q91.55 29.30 91.38 28.40Q91.20 27.50 91.60 27.40Q92.10 27.40 95.85 23.70Q97.10 22.45 97.10 23Q97.10 23.55 96.45 24.10Q95.10 25.30 96.50 25.30Q97.10 25.30 99.95 23.90Q102.80 22.50 103.85 21.70Q104.60 21.10 104.63 20.85Q104.65 20.60 104.30 19.45Q103.80 18 103.43 17.90Q103.05 17.80 101.23 19.02Q99.40 20.25 99.28 20.07Q99.15 19.90 100.73 17.60Q102.30 15.30 101.85 15.02Q101.40 14.75 101 14.75Q100.65 14.70 99.90 13.57Q99.15 12.45 99.15 11.85Q99.15 11.35 99.95 11.10Q100.85 10.85 105.15 7.85ZM154.40 8.40Q154.70 7.90 156.43 8.07Q158.15 8.25 158.70 8.90Q159.10 9.30 159 9.52Q158.90 9.75 158.15 10.40Q157.05 11.30 155.85 12.95L154.65 14.70L155.60 14.80Q159.05 15.20 159.05 16.15Q159.05 16.70 156.33 19.57Q153.60 22.45 153.60 22.55Q153.60 22.70 155 22.15Q156.40 21.60 158.03 20.85Q159.65 20.10 160.15 19.75Q161.15 19.05 161.50 19.02Q161.85 19 162.75 19.40Q164.05 19.90 164.90 20.02Q165.75 20.15 165.85 20.90Q165.95 21.55 165.40 21.92Q164.85 22.30 163.40 22.55Q162.05 22.80 160.70 23.77Q159.35 24.75 158.23 25.13Q157.10 25.50 156.20 26.65Q155.05 28.20 155.55 28.20Q155.60 28.20 155.75 28.15Q156.20 28.10 157.05 28.32Q157.90 28.55 159.03 28.67Q160.15 28.80 160.75 29.35Q161.15 29.75 161.15 29.98Q161.15 30.20 160.80 30.85Q160.25 31.75 159.25 32Q158.15 32.25 156.78 32.85Q155.40 33.45 154.80 33.95Q154.10 34.60 153.25 34.80Q152.55 35 151.65 35.65Q150.75 36.30 148.10 38.55Q145.75 40.55 145.75 41.10Q145.75 41.55 146 41.50Q146.30 41.50 147.55 40.75Q149.10 39.80 150.88 39.42Q152.65 39.05 153.65 39.40Q155 39.95 156.03 39.70Q157.05 39.45 159.40 38.25Q162.40 36.70 163.75 36.50Q165.10 36.30 165.45 36Q165.75 35.80 167.35 36.33Q168.95 36.85 170.45 37.65Q172.80 38.85 171.65 40.45Q170.40 42.15 166.75 42.45Q163.30 42.75 164.70 41.30Q165.95 40.10 166.08 39.17Q166.20 38.25 165.15 37.90Q164.40 37.70 163.28 37.98Q162.15 38.25 161.60 38.85Q160.95 39.55 158.55 41.90Q156.40 44 155.43 44.23Q154.45 44.45 153.35 43.10Q152.40 41.90 151.85 41.90Q151.30 41.90 148.05 43.42Q144.80 44.95 144.60 45.30Q144.35 45.60 143.55 45.60Q143 45.60 142.85 45.35Q142.70 45.10 142.55 44.10Q142.40 43.10 142.50 42.50Q142.60 41.90 143.25 40.75Q144.30 38.95 146.15 37.55Q151.50 33.45 151.05 32.45Q150.60 31.35 150.58 30.17Q150.55 29 150.95 28.70Q151.60 28.25 152.33 27.63Q153.05 27 153.50 26.50Q153.95 26 153.85 25.90Q153.50 25.55 147.15 29.70Q144.10 31.70 142.63 32.40Q141.15 33.10 138.95 33.50Q136.65 33.95 135.72 33.60Q134.80 33.25 134.80 31.95Q134.80 31 135.10 30.73Q135.40 30.45 137.10 29.75Q143.30 27.15 144.40 26.35L146.75 24.65Q147.90 23.75 148.22 23.13Q148.55 22.50 148.20 21.75Q147.15 19.85 147.18 19.27Q147.20 18.70 148.45 17.05Q149.45 15.65 149.33 15.42Q149.20 15.20 147.35 15.85Q145.75 16.40 143.40 16.70Q141.05 17 140.60 16.70Q140.45 16.60 141.30 16.05Q142.35 15.40 144.40 14.35Q148.25 12.45 151.18 10.73Q154.10 9 154.40 8.40M150.20 2.85Q150.75 2.55 151.13 2.57Q151.50 2.60 152.05 3.05Q152.75 3.55 153.30 3.55Q153.95 3.55 154.80 4.50Q155.65 5.45 155.65 6.10Q155.65 6.85 155.05 7.20Q154.45 7.55 152.55 7.95Q150.75 8.35 149.70 8.67Q148.65 9 148.58 8.88Q148.50 8.75 150.03 7.23Q151.55 5.70 151.55 5.27Q151.55 4.85 150.60 4.05Q150.10 3.50 150 3.25Q149.90 3 150.20 2.85ZM196.85 32.20Q196.85 31.90 197.10 31.90Q198.80 31.90 199.95 33.92Q201.10 35.95 201.10 37.13Q201.10 38.30 200.88 39.35Q200.65 40.40 199.33 43.67Q198 46.95 197.28 46.95Q196.55 46.95 196.15 45.27Q195.75 43.60 195.75 41.92Q195.75 40.25 196.08 38.63Q196.40 37 196.60 36Q197.05 34.20 197.05 33.55L196.85 32.20ZM234.65 6.60Q234.55 6.35 234.68 6.23Q234.80 6.10 235.25 6.10Q236.30 6.10 236.58 6.67Q236.85 7.25 236.35 8.60Q235.95 9.65 235.90 10.20Q235.85 10.75 236.13 10.85Q236.40 10.95 237.05 10.57Q237.70 10.20 238.85 9.35Q240.20 8.35 240.90 8.05Q241.60 7.75 242.65 7.75Q244.30 7.75 244.55 8Q244.75 8.25 244.25 9.15Q243.75 10.05 243 10.75Q240.45 13.05 236.85 13L234.55 12.95L234.10 14.20Q233.85 15.15 232.83 17.57Q231.80 20 231.35 20.90Q231.10 21.50 231.10 22.27Q231.10 23.05 230.85 23.32Q230.60 23.60 230.15 25.70Q229.70 27.80 229.85 27.90Q230.25 28.35 234.20 24.90L238.80 21Q240.80 19.25 242.30 18.10L243.80 16.90L243.60 14.45Q243.55 12.70 243.60 12.30Q243.65 11.90 244.05 11.90Q244.90 11.90 246.33 12.50Q247.75 13.10 248.20 13.70Q248.75 14.40 249.40 14.05Q250.50 13.40 252.73 12.82Q254.95 12.25 256.05 12.25Q257.60 12.25 258.75 12.95Q259.50 13.40 259.68 13.70Q259.85 14 259.65 14.75Q259.15 17.45 253.85 22.55Q251.60 24.75 251.28 25.22Q250.95 25.70 251.35 26.30Q252.25 27.55 251.68 29.42Q251.10 31.30 249.20 33.35Q247.45 35.25 247.45 35.58Q247.45 35.90 249.35 35.90Q251.05 35.90 253 36.70Q254.95 37.50 255.55 38.40Q255.95 39.05 255.95 39.30Q255.95 39.55 255.55 40.15Q255.10 40.80 254.68 40.88Q254.25 40.95 252.20 40.80Q249.35 40.55 249 40.25Q248.75 40.05 247.23 40.17Q245.70 40.30 244.60 40.65Q243.15 41.10 240.08 41.67Q237 42.25 236.65 42.10Q235.75 41.75 235.90 38.95Q235.95 37.85 236.30 37.48Q236.65 37.10 238.10 36.60Q239.80 35.95 240.60 34.80Q240.95 34.40 240.70 34.30Q240.20 34.10 239.15 33.15Q238.10 32.20 237.05 31.75Q235.50 30.95 236.30 30.10Q237 29.30 240.30 27.50L243.55 25.75L243.85 24Q244.20 22.25 243.95 21L243.65 19.75L242.40 20.55Q241.15 21.30 240.48 21.95Q239.80 22.60 239.03 23.10Q238.25 23.60 238.25 24.07Q238.25 24.55 237.43 25.10Q236.60 25.65 236.30 26.40Q235.90 27.85 233.60 29.65Q231.30 31.45 229.70 31.65Q228.80 31.80 228.53 31.57Q228.25 31.35 227.70 30.15Q227.15 29.05 227.10 28.60Q227.05 28.15 227.30 27.65Q227.70 26.85 228.50 24.57Q229.30 22.30 230.85 18.40Q235 7.55 234.65 6.60M254.70 15.75Q254.50 15.20 253.08 15.45Q251.65 15.70 249.93 16.60Q248.20 17.50 248.05 18.20Q247.80 19.10 247.83 20.27Q247.85 21.45 248.15 21.65Q248.80 22.05 251.73 19.38Q254.65 16.70 254.70 15.75M243.40 30.35Q243.40 29.40 241.25 29.95Q240.15 30.25 240.90 30.70Q241.50 31.05 242.60 31.05Q243.40 31.05 243.40 30.35ZM291.75 6.05Q294.10 6.65 294.30 7.70Q294.50 8.75 292.50 9.95Q291.20 10.70 289.60 12.20Q288 13.70 287.50 13.70Q286.80 13.70 285.50 14.97Q284.20 16.25 284.05 17.05Q283.80 18.05 284.70 19.65Q285.45 20.90 285.97 21.07Q286.50 21.25 287.65 20.70Q288.45 20.25 288.57 19.92Q288.70 19.60 288.10 19.15Q287.60 18.75 287.60 18.50Q287.95 18.30 289.88 18.30Q291.80 18.30 294.27 18.52Q296.75 18.75 297.20 18.95Q298.25 19.50 298.45 20.42Q298.65 21.35 297.90 21.95Q297.10 22.60 296.60 22.40Q295.45 21.95 290.95 23.27Q286.45 24.60 286.10 25.50Q285.85 26.10 286.38 26.70Q286.90 27.30 289.10 28.95Q293.45 32.25 296.20 34.80Q297.75 36.30 300.80 37.85L304.80 39.90Q305.60 40.30 305.67 40.95Q305.75 41.60 305.15 42.25Q304.80 42.65 304.25 42.70Q303.70 42.75 302.25 42.65Q299.90 42.45 297.85 41.85Q296.40 41.40 295.57 40.73Q294.75 40.05 292.30 37.45Q289.50 34.45 287.02 32.25Q284.55 30.05 284.15 30.30Q283.85 30.45 283.80 31.05Q283.80 31.90 283.10 33.65Q282.40 35.40 281.80 36.20Q279.50 39.10 278.52 39.83Q277.55 40.55 274.75 41.15Q272.35 41.75 271.75 41.92Q271.15 42.10 271.15 41.65Q271.15 41.20 273.20 40.05Q276.25 38.40 278.17 35.77Q280.10 33.15 280.65 30.05Q280.85 28.70 280.35 28.65Q280.20 28.65 279.90 29.05Q279.70 29.40 278.10 30.10Q277 30.60 276.45 30.65Q275.90 30.70 274.75 30.45Q273.55 30.20 272.52 29.38Q271.50 28.55 271.50 27.90Q271.50 27.40 272.63 27.20Q273.75 27 277.60 25.40L281.45 23.75L281.45 22.15Q281.45 20.50 280.92 20Q280.40 19.50 280.40 19.17Q280.40 18.85 282.47 16.70Q284.55 14.55 284.55 14.22Q284.55 13.90 283.15 14.20Q281.55 14.45 280.57 14.13Q279.60 13.80 278.85 12.70Q277.95 11.30 278.05 10.80Q278.15 10.30 279.50 10.10Q280.95 9.90 285.22 7.73Q289.50 5.55 289.57 5.50Q289.65 5.45 291.75 6.05ZM329.70 12.10Q329.70 10.75 332.05 12.25Q332.10 12.25 332.20 12.30Q333.80 13.25 334.47 13.97Q335.15 14.70 335.35 15.50L335.55 16.55L336.95 15.80Q338.30 15.10 338.72 15.40Q339.15 15.70 340.30 16.02Q341.45 16.35 342.15 17.30Q342.65 17.90 342.65 18.15Q342.65 18.40 342.30 18.80Q341.75 19.30 338.95 20.55Q335.90 22 335.38 22.70Q334.85 23.40 334.85 25.90Q334.85 28.85 335.30 28.85Q336 28.85 339.60 28.13Q343.20 27.40 344.05 27.10Q344.75 26.85 345.17 26.93Q345.60 27 346.50 27.65Q347.70 28.50 347.90 28.80Q348.10 29.10 348.35 30.10Q348.50 30.90 348.35 31.15Q348.20 31.40 347.30 31.80Q346.45 32.10 345.88 32.10Q345.30 32.10 343.80 31.80Q340.35 30.90 338.17 31.25Q336 31.60 333.35 33.40Q332.60 33.90 331.75 34.10Q330.90 34.30 328.95 34.40Q325.75 34.60 323.22 35.65Q320.70 36.70 320.10 36.70Q318.85 36.70 318.50 35.20Q318.15 33.70 319.15 32.55Q319.60 31.90 320.05 31.77Q320.50 31.65 322.10 31.65Q324.65 31.70 326.77 31.17Q328.90 30.65 330 29.65L331.15 28.50L330.95 24.80Q330.75 21.15 330.55 19.72Q330.35 18.30 330.70 18.10Q331.15 17.80 331.05 16.38Q330.95 14.95 330.40 14.05Q329.70 12.90 329.70 12.10ZM376.75 26.30Q377.35 24.40 377.92 24.42Q378.50 24.45 379.45 26.40Q380.10 27.70 380.22 28.38Q380.35 29.05 380.20 30.15L379.95 31.90L380.95 31.90Q381.85 31.90 383.05 32.27Q384.25 32.65 384.80 33.10Q385.15 33.40 385.35 33.40Q385.55 33.40 385.90 33Q386.55 32.25 386.60 31.63Q386.65 31 386.15 30Q385.70 29.20 385.67 28.95Q385.65 28.70 385.95 28.60Q386.45 28.40 388.07 29Q389.70 29.60 390.35 30.15Q390.90 30.65 390.92 32.02Q390.95 33.40 390.45 34.20Q389.55 35.50 387.60 36.13Q385.65 36.75 384.80 35.95Q384.50 35.55 382.40 35.70Q381.05 35.80 380.47 36.05Q379.90 36.30 379.05 37.10Q378.10 38 375.42 39.40Q372.75 40.80 372 40.80Q371.30 40.80 370.85 39.88Q370.40 38.95 370.40 37.55Q370.40 36.35 370.63 35.88Q370.85 35.40 371.85 34.60Q373.05 33.60 374.52 31.05Q376 28.50 376.75 26.30M389.65 15.30Q390.30 14.90 391.55 15.17Q392.80 15.45 394.35 15.65Q395.40 15.80 395.75 16.02Q396.10 16.25 396.55 17.20Q397.20 18.55 396.85 18.90Q396.50 19.25 393.97 19.60Q391.45 19.95 390.42 20.27Q389.40 20.60 385 21.10Q381.60 21.55 379.95 22.13Q378.30 22.70 375.55 24.45Q371.60 26.90 368.90 27.85L366.55 28.60L363.95 27.85Q361.20 27 360.47 26.70Q359.75 26.40 359.85 26Q360 25.65 361.20 25.22Q362.40 24.80 366.65 23.50Q370.95 22.30 373.82 20.97Q376.70 19.65 380.35 18.55Q388.65 16.05 389.65 15.30M383.65 7.75Q385.50 8.05 386.10 9.35Q386.60 10.60 385.20 10.85Q383.95 11.15 382.17 11.85Q380.40 12.55 380 12.95Q379.30 13.55 377.72 13.82Q376.15 14.10 375.05 13.80Q373.85 13.45 372.63 12.75Q371.40 12.05 371.40 11.75Q371.40 11.40 373.70 10.67Q376 9.95 378.60 8.63Q381.20 7.30 382.05 7.48Q382.90 7.65 383.65 7.75ZM424.20 2.80Q424 1.90 424.27 1.77Q424.55 1.65 425.85 2.25Q426.85 2.65 427.22 3.45Q427.60 4.25 427.15 5.10Q426.80 5.80 426.97 6.50Q427.15 7.20 427.65 7.20Q428.20 7.20 428.05 6.25Q428 5.75 428.10 5.55Q428.20 5.35 428.45 5.45Q429 5.60 430.90 5.95Q432.65 6.25 433.22 6.55Q433.80 6.85 433.80 7.40Q433.80 8.05 432.45 8.30Q427.70 9.20 427 10.40Q426.50 11.15 426.40 12.50Q426.30 13.45 426.47 13.75Q426.65 14.05 427.55 14.50Q428.80 15.05 428.80 15.40Q428.80 15.75 427.30 17.85Q425 21 425.55 21.45Q425.65 21.65 428.77 20.25Q431.90 18.85 432.40 18.85Q432.90 18.85 433.07 18.57Q433.25 18.30 434.75 17.85Q436.25 17.45 438.02 17.95Q439.80 18.45 439.80 19.25Q439.80 19.90 439.25 20.55Q438.70 21.20 438.30 21.20Q437.90 21.20 435.55 22.60Q433.20 24 432.72 24Q432.25 24 431.80 24.47Q431.35 24.95 429.27 26Q427.20 27.05 425.10 28.95Q422.60 31.30 423.05 31.35Q423.25 31.40 424 30.85Q425 30.15 427.20 29.15Q428.75 28.45 429.35 28.35Q429.95 28.25 431.10 28.55Q433.25 28.95 434.07 30.17Q434.90 31.40 434.05 32.85Q433.40 33.80 430.40 36.63Q427.40 39.45 426.55 39.75Q425.70 40.10 424.92 39.90Q424.15 39.70 423.75 40.60Q423.05 42.15 424.13 42.73Q425.20 43.30 428.60 43.25Q430.35 43.25 432.13 42.73Q433.90 42.20 434.95 41.40Q435.70 40.75 436.38 41.05Q437.05 41.35 437.05 42.25Q437.05 43.25 436.17 44.08Q435.30 44.90 433.90 45.30Q429.80 46.45 427.30 46.48Q424.80 46.50 422.50 45.35Q421.30 44.80 420.90 44.38Q420.50 43.95 420.15 42.85Q419.60 41.25 419.63 39.02Q419.65 36.80 419.45 34.55Q419.25 32.95 419.32 32.58Q419.40 32.20 419.90 32.05Q420.60 31.80 420.60 31.55Q420.60 31.30 421.92 30.40Q423.25 29.50 425.85 27.05L429.85 23.10Q431.35 21.80 430.95 21.70Q430.55 21.50 427.88 22.88Q425.20 24.25 424.10 25.20Q422.85 26.25 421.90 26.85Q420.95 27.45 419.10 29.05Q416.90 30.95 411.90 34.75Q408.10 37.65 407.45 37.20Q407.20 37.05 407.15 36.60Q406.85 35.15 407.07 34.58Q407.30 34 408.40 33.35Q409.85 32.45 415.60 26.65Q418.85 23.30 420.07 21.92Q421.30 20.55 421.25 20.05Q421.10 19.40 420.27 19.25Q419.45 19.10 419.15 18.75Q418.80 18.20 418.95 17.35Q419.10 16.50 419.65 16.10Q420.55 15.55 421.70 15.45Q422.70 15.35 423.42 13.82Q424.15 12.30 423.40 11.85Q423.05 11.60 421.65 12.82Q420.25 14.05 419.90 14.85Q419.10 16.75 417.20 14.50Q415.35 12.25 416.70 12.45Q416.80 12.45 416.90 12.50Q417.85 12.70 420.72 10.98Q423.60 9.25 424 8.25Q424.35 7.40 424.40 5.65Q424.45 3.90 424.20 2.80M429.50 31.65Q429.50 30.95 428.70 31.40Q428.20 31.70 427.10 32.50Q425.25 33.75 425.35 34.40Q425.50 35.15 425.67 35.23Q425.85 35.30 426.50 35.15Q427.15 34.95 428.32 33.58Q429.50 32.20 429.50 31.65ZM466.75 26.30Q467.35 24.40 467.92 24.42Q468.50 24.45 469.45 26.40Q470.10 27.70 470.22 28.38Q470.35 29.05 470.20 30.15L469.95 31.90L470.95 31.90Q471.85 31.90 473.05 32.27Q474.25 32.65 474.80 33.10Q475.15 33.40 475.35 33.40Q475.55 33.40 475.90 33Q476.55 32.25 476.60 31.63Q476.65 31 476.15 30Q475.70 29.20 475.67 28.95Q475.65 28.70 475.95 28.60Q476.45 28.40 478.07 29Q479.70 29.60 480.35 30.15Q480.90 30.65 480.92 32.02Q480.95 33.40 480.45 34.20Q479.55 35.50 477.60 36.13Q475.65 36.75 474.80 35.95Q474.50 35.55 472.40 35.70Q471.05 35.80 470.47 36.05Q469.90 36.30 469.05 37.10Q468.10 38 465.42 39.40Q462.75 40.80 462 40.80Q461.30 40.80 460.85 39.88Q460.40 38.95 460.40 37.55Q460.40 36.35 460.63 35.88Q460.85 35.40 461.85 34.60Q463.05 33.60 464.52 31.05Q466 28.50 466.75 26.30M479.65 15.30Q480.30 14.90 481.55 15.17Q482.80 15.45 484.35 15.65Q485.40 15.80 485.75 16.02Q486.10 16.25 486.55 17.20Q487.20 18.55 486.85 18.90Q486.50 19.25 483.97 19.60Q481.45 19.95 480.42 20.27Q479.40 20.60 475 21.10Q471.60 21.55 469.95 22.13Q468.30 22.70 465.55 24.45Q461.60 26.90 458.90 27.85L456.55 28.60L453.95 27.85Q451.20 27 450.47 26.70Q449.75 26.40 449.85 26Q450 25.65 451.20 25.22Q452.40 24.80 456.65 23.50Q460.95 22.30 463.82 20.97Q466.70 19.65 470.35 18.55Q478.65 16.05 479.65 15.30M473.65 7.75Q475.50 8.05 476.10 9.35Q476.60 10.60 475.20 10.85Q473.95 11.15 472.17 11.85Q470.40 12.55 470 12.95Q469.30 13.55 467.72 13.82Q466.15 14.10 465.05 13.80Q463.85 13.45 462.63 12.75Q461.40 12.05 461.40 11.75Q461.40 11.40 463.70 10.67Q466 9.95 468.60 8.63Q471.20 7.30 472.05 7.48Q472.90 7.65 473.65 7.75ZM507.45 16.40Q509.25 15.45 509.85 15.30Q510.45 15.15 511.55 15.40Q513.10 15.75 513.23 16.22Q513.35 16.70 511.77 18.60Q510.20 20.50 510.35 20.65Q510.50 20.80 511.80 20.50Q513 20.25 514.60 20.42Q516.20 20.60 516.30 21Q516.40 21.35 514.45 21.95Q512.95 22.50 512.70 22.75Q512.45 23 512.40 24.05Q512.35 25.35 512.10 26.30Q511.95 26.90 512.15 27.10Q512.35 27.30 513.50 27.60Q515.05 28.05 515.48 27.72Q515.90 27.40 517.10 27.18Q518.30 26.95 521.35 25.22Q524.40 23.50 524.60 23.50Q524.80 23.50 525.70 23.02Q526.60 22.55 528.80 21.80Q530.40 21.35 530.95 21.32Q531.50 21.30 532.75 21.65Q534.30 22.10 534.75 22.75Q535.20 23.40 535.20 25.15Q535.20 26.35 534.98 26.77Q534.75 27.20 533.60 28.20Q532 29.55 530.55 30.30Q529.60 30.75 529.32 31.13Q529.05 31.50 528.90 32.65Q528.70 34.30 528.80 38.75Q528.85 42.50 528.60 43.63Q528.35 44.75 527.45 45.10Q526.75 45.35 525.40 44.77Q524.05 44.20 522.95 43.25Q522.15 42.50 522.27 42.10Q522.40 41.70 523.50 41.45L524.80 41.10L524.85 35.45Q524.90 31.65 524.82 30.42Q524.75 29.20 524.35 28.40L523.70 27.20L522.45 28.30Q521.20 29.40 519.25 30.20Q517.70 30.85 516.95 30.73Q516.20 30.60 515.90 29.70Q515.70 29.15 515.60 29.13Q515.50 29.10 515 29.50Q514.35 30.15 514.38 30.57Q514.40 31 515.10 31.45L515.90 32L515.05 32.90Q514.25 33.75 512.52 34.88Q510.80 36 510.45 36.35Q509.55 37.30 508.15 37.67Q506.75 38.05 505.65 37.65Q505.15 37.45 504.57 36.30Q504 35.15 503.88 34.20Q503.75 33.25 504.15 33.05Q504.50 33.05 505.35 33.58Q506.20 34.10 506.75 34.70Q507.45 35.35 508.10 35.10Q508.35 34.95 508.25 34.70Q508.15 34.30 508.42 33.67Q508.70 33.05 509.05 33.05Q509.40 33.05 509.65 32.60Q509.90 32.15 509.90 31.50Q509.90 30.35 508.10 31.80Q507.80 32.05 507.45 32.30Q507.10 32.60 506.77 32.90Q506.45 33.20 506.25 33.30Q506.05 33.40 506 33.33Q505.95 33.25 505.25 32.45L504.55 31.65L506.05 30.40Q507.95 28.70 507.80 27.55Q507.60 26.50 506.05 27.55Q505.85 27.70 505.55 27.90Q504.30 28.95 502.75 29.50Q501.70 29.95 501.40 29.95Q501.10 29.95 500.75 29.50Q500.25 28.75 500.30 28Q500.35 27.25 500.95 27.25Q501.90 27.25 504.35 24.40Q506.80 21.55 506.80 20.40Q506.80 19.90 505.77 19.13Q504.75 18.35 504.82 18.02Q504.90 17.70 507.45 16.40M531.10 25.15Q530.95 24.40 530.25 24.25Q529.30 24.20 527.15 25.18Q525 26.15 525 26.70Q525 27.10 526.55 28.35Q527.70 29.35 528 29.42Q528.30 29.50 528.85 29.05Q529.70 28.30 530.42 27Q531.15 25.70 531.10 25.15M507.65 6.95Q510.05 3 510.30 3Q510.55 3 510.60 3.55Q510.65 4.10 510.52 4.82Q510.40 5.55 510.10 5.85Q509.70 6.45 509.63 7.07Q509.55 7.70 509.90 7.95Q510.20 8.10 513.10 8.45Q517.20 9 519.80 10.85L520.85 11.55L520.95 10.75Q521.15 10 521.40 8.30Q521.65 7 521.98 6.63Q522.30 6.25 522.85 6.70Q523.35 7 523.55 11.10Q523.60 12.20 523.92 12.20Q524.25 12.20 525.40 11.10Q528.70 7.75 530.05 7.75Q530.75 7.75 531.80 8.27Q532.85 8.80 532.85 9.15Q532.85 9.45 531.13 12.88Q529.40 16.30 529.40 16.72Q529.40 17.15 530.35 17.90Q530.95 18.40 531.05 18.63Q531.15 18.85 530.80 19.20Q530.45 19.50 527.32 20.82Q524.20 22.15 523.75 22.15Q523.60 22.15 524.15 21.27Q524.70 20.40 524.38 20.10Q524.05 19.80 522.45 19.55Q520.65 19.25 520.25 18.75Q519.90 18.25 519.85 16.45Q519.80 14.65 520.15 14.42Q520.50 14.20 520.50 13.60Q520.50 13.15 520.30 13.05Q520.10 12.95 519.60 12.95Q518.65 13.05 517.80 12.47Q516.95 11.90 515.50 11.90Q514.40 11.90 512.42 11.13Q510.45 10.35 510.10 9.85Q509.85 9.50 509.05 9.50Q508.25 9.50 507.88 10.55Q507.50 11.60 506.30 13.35Q502.20 19.35 501.10 20.50Q500.50 21.15 499.30 22.50Q495.65 26.75 493.60 27.80Q492.25 28.45 492.02 28.77Q491.80 29.10 491.60 28.90Q491.40 28.70 492.30 27.70Q493.05 26.90 495.05 24.63Q497.05 22.35 497.30 21.95L498.60 20.25L499.90 18.50Q501.40 16.70 503.85 13Q506.30 9.30 507.65 6.95M528.55 11.30Q528.80 10.40 528.25 10.55Q527.70 10.60 526.80 11.67Q525.90 12.75 525.05 14.38Q524.20 16 524.40 16.17Q524.60 16.35 526.25 14.55Q527.55 13.10 527.90 12.63Q528.25 12.15 528.55 11.30Z"/></g></g></g></svg>